<svg xmlns="http://www.w3.org/2000/svg" viewBox="0 0 640 480" fill="none" role="img" aria-labelledby="t">
  <title id="t">Vague d'audience</title>
  <defs>
    <linearGradient id="gPaper" x1="0" y1="0" x2="1" y2="1">
      <stop offset="0%" stop-color="#FAFBFC"/>
      <stop offset="100%" stop-color="#EEF2F5"/>
    </linearGradient>
    <linearGradient id="gInk" x1="0" y1="0" x2="0" y2="1">
      <stop offset="0%" stop-color="#2A2030"/>
      <stop offset="100%" stop-color="#1D141F"/>
    </linearGradient>
    <filter id="soft" x="-20%" y="-20%" width="140%" height="140%">
      <feGaussianBlur stdDeviation="8" result="b"/>
      <feMerge><feMergeNode in="b"/><feMergeNode in="SourceGraphic"/></feMerge>
    </filter>
    <clipPath id="frame"><rect width="640" height="480" rx="32"/></clipPath>
  </defs>
  <g clip-path="url(#frame)">
    <rect width="640" height="480" fill="url(#gPaper)"/>
    <circle cx="560" cy="-20" r="160" fill="#E2F343" fill-opacity="0.18"/>
    <circle cx="40" cy="460" r="140" fill="#1D141F" fill-opacity="0.07"/>
    <path d="M0 360c80-40 160-20 240 10s160 40 240-10 120-50 160-20v140H0V360Z" fill="#E8ECEF" fill-opacity="0.35"/>

    <path d="M40 180c80-60 160-40 240 0s160 60 240 0v40c-80 60-160 40-240 0s-160-60-240 0v-40Z" fill="#E8ECEF" opacity="0.5"/>
    <path d="M40 150c90-50 170-30 250 10s150 50 230-10" stroke="#E2F343" stroke-width="4" fill="none"/>
    <g transform="translate(70 220)">
      <circle r="16" fill="#E2F343"/>
      <path d="M-22 50c6-28 14-36 22-36s16 8 22 36" fill="#E2F343"/>
    </g>
    <g transform="translate(130 220)">
      <circle r="16" fill="#1D141F"/>
      <path d="M-22 50c6-28 14-36 22-36s16 8 22 36" fill="#1D141F"/>
    </g>
    <g transform="translate(190 220)">
      <circle r="16" fill="#D95800"/>
      <path d="M-22 50c6-28 14-36 22-36s16 8 22 36" fill="#D95800"/>
    </g>
    <g transform="translate(250 220)">
      <circle r="16" fill="#E2F343"/>
      <path d="M-22 50c6-28 14-36 22-36s16 8 22 36" fill="#E2F343"/>
    </g>
    <g transform="translate(310 220)">
      <circle r="16" fill="#1D141F"/>
      <path d="M-22 50c6-28 14-36 22-36s16 8 22 36" fill="#1D141F"/>
    </g>
    <g transform="translate(370 220)">
      <circle r="16" fill="#D95800"/>
      <path d="M-22 50c6-28 14-36 22-36s16 8 22 36" fill="#D95800"/>
    </g>
    <g transform="translate(430 220)">
      <circle r="16" fill="#E2F343"/>
      <path d="M-22 50c6-28 14-36 22-36s16 8 22 36" fill="#E2F343"/>
    </g>
    <g transform="translate(490 220)">
      <circle r="16" fill="#1D141F"/>
      <path d="M-22 50c6-28 14-36 22-36s16 8 22 36" fill="#1D141F"/>
    </g>
    <g transform="translate(550 220)">
      <circle r="16" fill="#D95800"/>
      <path d="M-22 50c6-28 14-36 22-36s16 8 22 36" fill="#D95800"/>
    </g>
    <g transform="translate(100 280)">
      <circle r="16" fill="#E2F343"/>
      <path d="M-22 50c6-28 14-36 22-36s16 8 22 36" fill="#E2F343"/>
    </g>
    <g transform="translate(160 280)">
      <circle r="16" fill="#1D141F"/>
      <path d="M-22 50c6-28 14-36 22-36s16 8 22 36" fill="#1D141F"/>
    </g>
    <g transform="translate(220 280)">
      <circle r="16" fill="#D95800"/>
      <path d="M-22 50c6-28 14-36 22-36s16 8 22 36" fill="#D95800"/>
    </g>
    <g transform="translate(280 280)">
      <circle r="16" fill="#E2F343"/>
      <path d="M-22 50c6-28 14-36 22-36s16 8 22 36" fill="#E2F343"/>
    </g>
    <g transform="translate(340 280)">
      <circle r="16" fill="#1D141F"/>
      <path d="M-22 50c6-28 14-36 22-36s16 8 22 36" fill="#1D141F"/>
    </g>
    <g transform="translate(400 280)">
      <circle r="16" fill="#D95800"/>
      <path d="M-22 50c6-28 14-36 22-36s16 8 22 36" fill="#D95800"/>
    </g>
    <g transform="translate(460 280)">
      <circle r="16" fill="#E2F343"/>
      <path d="M-22 50c6-28 14-36 22-36s16 8 22 36" fill="#E2F343"/>
    </g>
    <g transform="translate(520 280)">
      <circle r="16" fill="#1D141F"/>
      <path d="M-22 50c6-28 14-36 22-36s16 8 22 36" fill="#1D141F"/>
    </g>
    <g transform="translate(580 280)">
      <circle r="16" fill="#D95800"/>
      <path d="M-22 50c6-28 14-36 22-36s16 8 22 36" fill="#D95800"/>
    </g>
    <rect x="220" y="70" width="200" height="70" rx="16" fill="url(#gInk)"/>
    <rect x="245" y="92" width="100" height="10" rx="5" fill="#E2F343"/>
    <rect x="245" y="112" width="140" height="7" rx="3.5" fill="#E8ECEF" opacity="0.35"/>
  </g>
</svg>
