<svg xmlns="http://www.w3.org/2000/svg" viewBox="0 0 640 480" fill="none" role="img" aria-labelledby="t">
  <title id="t">Constellation de données</title>
  <defs>
    <linearGradient id="gPaper" x1="0" y1="0" x2="1" y2="1">
      <stop offset="0%" stop-color="#FAFBFC"/>
      <stop offset="100%" stop-color="#EEF2F5"/>
    </linearGradient>
    <linearGradient id="gInk" x1="0" y1="0" x2="0" y2="1">
      <stop offset="0%" stop-color="#2A2030"/>
      <stop offset="100%" stop-color="#1D141F"/>
    </linearGradient>
    <filter id="soft" x="-20%" y="-20%" width="140%" height="140%">
      <feGaussianBlur stdDeviation="8" result="b"/>
      <feMerge><feMergeNode in="b"/><feMergeNode in="SourceGraphic"/></feMerge>
    </filter>
    <clipPath id="frame"><rect width="640" height="480" rx="32"/></clipPath>
  </defs>
  <g clip-path="url(#frame)">
    <rect width="640" height="480" fill="url(#gPaper)"/>
    <circle cx="560" cy="-20" r="160" fill="#E2F343" fill-opacity="0.18"/>
    <circle cx="40" cy="460" r="140" fill="#1D141F" fill-opacity="0.07"/>
    <path d="M0 360c80-40 160-20 240 10s160 40 240-10 120-50 160-20v140H0V360Z" fill="#E8ECEF" fill-opacity="0.35"/>

    <path d="M120 140L200 90" stroke="#E8ECEF" stroke-width="3"/>
    <path d="M200 90L300 120" stroke="#E8ECEF" stroke-width="3"/>
    <path d="M300 120L400 80" stroke="#E8ECEF" stroke-width="3"/>
    <path d="M400 80L500 130" stroke="#E8ECEF" stroke-width="3"/>
    <path d="M120 140L160 230" stroke="#E8ECEF" stroke-width="3"/>
    <path d="M160 230L260 210" stroke="#E8ECEF" stroke-width="3"/>
    <path d="M260 210L300 120" stroke="#E8ECEF" stroke-width="3"/>
    <path d="M300 120L360 250" stroke="#E8ECEF" stroke-width="3"/>
    <path d="M360 250L460 220" stroke="#E8ECEF" stroke-width="3"/>
    <path d="M460 220L500 130" stroke="#E8ECEF" stroke-width="3"/>
    <path d="M260 210L320 320" stroke="#E8ECEF" stroke-width="3"/>
    <path d="M360 250L320 320" stroke="#E8ECEF" stroke-width="3"/>
    <path d="M320 320L180 340" stroke="#E8ECEF" stroke-width="3"/>
    <path d="M320 320L420 350" stroke="#E8ECEF" stroke-width="3"/>
    <path d="M460 220L520 280" stroke="#E8ECEF" stroke-width="3"/>
    <circle cx="120" cy="140" r="14" fill="#E2F343"/><circle cx="120" cy="140" r="24" fill="none" stroke="#E2F343" stroke-opacity="0.25" stroke-width="2"/>
    <circle cx="200" cy="90" r="10" fill="#1D141F"/><circle cx="200" cy="90" r="20" fill="none" stroke="#1D141F" stroke-opacity="0.25" stroke-width="2"/>
    <circle cx="300" cy="120" r="10" fill="#D95800"/><circle cx="300" cy="120" r="20" fill="none" stroke="#D95800" stroke-opacity="0.25" stroke-width="2"/>
    <circle cx="400" cy="80" r="10" fill="#E2F343"/><circle cx="400" cy="80" r="20" fill="none" stroke="#E2F343" stroke-opacity="0.25" stroke-width="2"/>
    <circle cx="500" cy="130" r="14" fill="#1D141F"/><circle cx="500" cy="130" r="24" fill="none" stroke="#1D141F" stroke-opacity="0.25" stroke-width="2"/>
    <circle cx="160" cy="230" r="10" fill="#D95800"/><circle cx="160" cy="230" r="20" fill="none" stroke="#D95800" stroke-opacity="0.25" stroke-width="2"/>
    <circle cx="260" cy="210" r="10" fill="#E2F343"/><circle cx="260" cy="210" r="20" fill="none" stroke="#E2F343" stroke-opacity="0.25" stroke-width="2"/>
    <circle cx="360" cy="250" r="10" fill="#1D141F"/><circle cx="360" cy="250" r="20" fill="none" stroke="#1D141F" stroke-opacity="0.25" stroke-width="2"/>
    <circle cx="460" cy="220" r="14" fill="#D95800"/><circle cx="460" cy="220" r="24" fill="none" stroke="#D95800" stroke-opacity="0.25" stroke-width="2"/>
    <circle cx="320" cy="320" r="10" fill="#E2F343"/><circle cx="320" cy="320" r="20" fill="none" stroke="#E2F343" stroke-opacity="0.25" stroke-width="2"/>
    <circle cx="180" cy="340" r="10" fill="#1D141F"/><circle cx="180" cy="340" r="20" fill="none" stroke="#1D141F" stroke-opacity="0.25" stroke-width="2"/>
    <circle cx="420" cy="350" r="10" fill="#D95800"/><circle cx="420" cy="350" r="20" fill="none" stroke="#D95800" stroke-opacity="0.25" stroke-width="2"/>
    <circle cx="520" cy="280" r="14" fill="#E2F343"/><circle cx="520" cy="280" r="24" fill="none" stroke="#E2F343" stroke-opacity="0.25" stroke-width="2"/>
    <rect x="250" y="180" width="140" height="70" rx="14" fill="#FAFBFC" stroke="#1D141F" stroke-width="3"/>
    <rect x="268" y="200" width="70" height="8" rx="4" fill="#E2F343"/>
    <rect x="268" y="218" width="100" height="6" rx="3" fill="#E8ECEF"/>
  </g>
</svg>
