<svg xmlns="http://www.w3.org/2000/svg" viewBox="0 0 640 480" fill="none" role="img" aria-labelledby="t">
  <title id="t">Mécanisme d'automation</title>
  <defs>
    <linearGradient id="gPaper" x1="0" y1="0" x2="1" y2="1">
      <stop offset="0%" stop-color="#FAFBFC"/>
      <stop offset="100%" stop-color="#EEF2F5"/>
    </linearGradient>
    <linearGradient id="gInk" x1="0" y1="0" x2="0" y2="1">
      <stop offset="0%" stop-color="#2A2030"/>
      <stop offset="100%" stop-color="#1D141F"/>
    </linearGradient>
    <filter id="soft" x="-20%" y="-20%" width="140%" height="140%">
      <feGaussianBlur stdDeviation="8" result="b"/>
      <feMerge><feMergeNode in="b"/><feMergeNode in="SourceGraphic"/></feMerge>
    </filter>
    <clipPath id="frame"><rect width="640" height="480" rx="32"/></clipPath>
  </defs>
  <g clip-path="url(#frame)">
    <rect width="640" height="480" fill="url(#gPaper)"/>
    <circle cx="560" cy="-20" r="160" fill="#E2F343" fill-opacity="0.18"/>
    <circle cx="40" cy="460" r="140" fill="#1D141F" fill-opacity="0.07"/>
    <path d="M0 360c80-40 160-20 240 10s160 40 240-10 120-50 160-20v140H0V360Z" fill="#E8ECEF" fill-opacity="0.35"/>

    <path d="M350.0 230.0 L315.3 254.5 L329.0 294.7 L286.6 294.1 L274.0 334.6 L240.0 309.2 L206.0 334.6 L193.4 294.1 L151.0 294.7 L164.7 254.5 L130.0 230.0 L164.7 205.5 L151.0 165.3 L193.4 165.9 L206.0 125.4 L240.0 150.8 L274.0 125.4 L286.6 165.9 L329.0 165.3 L315.3 205.5Z" fill="#1D141F"/><circle cx="240" cy="230" r="30.8" fill="#FAFBFC"/>
    <path d="M478.3 216.6 L447.5 232.6 L443.6 267.1 L410.5 256.6 L383.4 278.3 L367.4 247.5 L332.9 243.6 L343.4 210.5 L321.7 183.4 L352.5 167.4 L356.4 132.9 L389.5 143.4 L416.6 121.7 L432.6 152.5 L467.1 156.4 L456.6 189.5Z" fill="#E2F343"/><circle cx="400" cy="200" r="22.4" fill="#FAFBFC"/>
    <path d="M441.7 338.8 L417.7 348.3 L407.5 372.1 L385.1 359.3 L360.2 366.2 L356.2 340.6 L335.3 325.5 L352.8 306.5 L351.6 280.6 L377.4 282.5 L396.8 265.4 L411.5 286.7 L436.9 291.3 L429.4 316.1Z" fill="#D95800"/><circle cx="390" cy="320" r="15.4" fill="#FAFBFC"/>
    <path d="M207.5 326.7 L187.2 341.3 L178.0 364.5 L155.2 354.2 L130.4 357.8 L128.0 332.9 L112.5 313.3 L132.8 298.7 L142.0 275.5 L164.8 285.8 L189.6 282.2 L192.0 307.1Z" fill="#E8ECEF"/><circle cx="160" cy="320" r="13.4" fill="#FAFBFC"/>
    <rect x="250" y="80" width="120" height="40" rx="12" fill="#FAFBFC" stroke="#1D141F" stroke-width="3"/>
    <rect x="268" y="94" width="50" height="8" rx="4" fill="#E2F343"/>
    <path d="M120 120c40-40 100-20 120 20" stroke="#5C6470" stroke-width="3" stroke-dasharray="6 6" fill="none"/>
  </g>
</svg>
