<svg xmlns="http://www.w3.org/2000/svg" viewBox="0 0 480 360" fill="none" role="img" aria-labelledby="t">
  <title id="t">Composer une newsletter</title>
  <rect width="480" height="360" rx="28" fill="#FAFBFC"/>
  <circle cx="420" cy="32" r="88" fill="#E2F343" fill-opacity="0.16"/>
  <circle cx="48" cy="328" r="72" fill="#1D141F" fill-opacity="0.06"/>

  <rect x="90" y="70" width="200" height="160" rx="14" fill="#FAFBFC" stroke="#E8ECEF" stroke-width="3"/>
  <rect x="110" y="95" width="90" height="8" rx="4" fill="#E2F343"/>
  <rect x="110" y="115" width="140" height="6" rx="3" fill="#E8ECEF"/>
  <rect x="110" y="132" width="120" height="6" rx="3" fill="#E8ECEF"/>
  <path d="M250 150h140c12 0 22 10 22 22v90c0 12-10 22-22 22H250c-12 0-22-10-22-22v-90c0-12 10-22 22-22Z" fill="#1D141F"/>
  <path d="M228 182l78 40c5 2.5 11 2.5 16 0l78-40" stroke="#E2F343" stroke-width="3" stroke-linecap="round"/>
</svg>
