<svg xmlns="http://www.w3.org/2000/svg" viewBox="0 0 480 360" fill="none" role="img" aria-labelledby="t">
  <title id="t">Agenda événements</title>
  <rect width="480" height="360" rx="28" fill="#FAFBFC"/>
  <circle cx="420" cy="32" r="88" fill="#E2F343" fill-opacity="0.16"/>
  <circle cx="48" cy="328" r="72" fill="#1D141F" fill-opacity="0.06"/>

  <rect x="130" y="90" width="220" height="200" rx="18" fill="#1D141F"/>
  <rect x="130" y="90" width="220" height="48" rx="18" fill="#E2F343"/>
  <rect x="130" y="120" width="220" height="18" fill="#E2F343"/>
  <circle cx="170" cy="114" r="7" fill="#1D141F"/>
  <circle cx="310" cy="114" r="7" fill="#1D141F"/>
  <rect x="160" y="168" width="28" height="22" rx="5" fill="#E8ECEF" opacity="0.25"/>
  <rect x="202" y="168" width="28" height="22" rx="5" fill="#E8ECEF" opacity="0.25"/>
  <rect x="244" y="168" width="28" height="22" rx="5" fill="#E8ECEF" opacity="0.25"/>
  <rect x="286" y="168" width="28" height="22" rx="5" fill="#E8ECEF" opacity="0.25"/>
  <rect x="160" y="202" width="28" height="22" rx="5" fill="#E8ECEF" opacity="0.25"/>
  <rect x="202" y="202" width="28" height="22" rx="5" fill="#E2F343" opacity="1"/>
  <rect x="244" y="202" width="28" height="22" rx="5" fill="#E8ECEF" opacity="0.25"/>
  <rect x="286" y="202" width="28" height="22" rx="5" fill="#E8ECEF" opacity="0.25"/>
  <rect x="160" y="236" width="28" height="22" rx="5" fill="#E8ECEF" opacity="0.25"/>
  <rect x="202" y="236" width="28" height="22" rx="5" fill="#E8ECEF" opacity="0.25"/>
  <rect x="244" y="236" width="28" height="22" rx="5" fill="#E8ECEF" opacity="0.25"/>
  <rect x="286" y="236" width="28" height="22" rx="5" fill="#E8ECEF" opacity="0.25"/>
</svg>
