<svg xmlns="http://www.w3.org/2000/svg" viewBox="0 0 480 360" fill="none" role="img" aria-labelledby="t">
  <title id="t">Paramètres</title>
  <rect width="480" height="360" rx="28" fill="#FAFBFC"/>
  <circle cx="420" cy="32" r="88" fill="#E2F343" fill-opacity="0.16"/>
  <circle cx="48" cy="328" r="72" fill="#1D141F" fill-opacity="0.06"/>

  <circle cx="240" cy="170" r="36" fill="#FAFBFC" stroke="#1D141F" stroke-width="20"/>
  <rect x="306" y="152" width="24" height="36" rx="6" fill="#1D141F" transform="rotate(0 318 170)"/>
  <rect x="283.1543289325507" y="207.1543289325507" width="24" height="36" rx="6" fill="#1D141F" transform="rotate(45 295.1543289325507 225.1543289325507)"/>
  <rect x="228" y="230" width="24" height="36" rx="6" fill="#1D141F" transform="rotate(90 240 248)"/>
  <rect x="172.8456710674493" y="207.1543289325507" width="24" height="36" rx="6" fill="#1D141F" transform="rotate(135 184.8456710674493 225.1543289325507)"/>
  <rect x="150" y="152" width="24" height="36" rx="6" fill="#1D141F" transform="rotate(180 162 170)"/>
  <rect x="172.84567106744927" y="96.8456710674493" width="24" height="36" rx="6" fill="#1D141F" transform="rotate(225 184.84567106744927 114.8456710674493)"/>
  <rect x="227.99999999999997" y="74" width="24" height="36" rx="6" fill="#1D141F" transform="rotate(270 239.99999999999997 92)"/>
  <rect x="283.1543289325507" y="96.84567106744927" width="24" height="36" rx="6" fill="#1D141F" transform="rotate(315 295.1543289325507 114.84567106744927)"/>
  <circle cx="240" cy="170" r="18" fill="#E2F343"/>
</svg>
