<svg width="675" height="626" viewBox="0 0 675 626" fill="none" xmlns="http://www.w3.org/2000/svg">
<path fill-rule="evenodd" clip-rule="evenodd" d="M320.231 327.795C303.567 329.717 290.78 329.486 281.87 327.103C272.96 324.72 265.933 319.652 260.789 311.897C255.182 300.038 252.072 293.241 251.458 291.507C248.451 283.012 248.118 274.662 248.694 269.044C249.445 261.706 253.477 252.145 260.789 240.36C261.831 232.166 263.559 224.909 265.973 218.588C268.387 212.266 273.226 203.166 280.488 191.286L281.525 152.234C284.589 143.295 287.469 136.959 290.164 133.226C292.86 129.494 295.971 127.535 299.495 127.351C302.469 127.069 305.234 127.76 307.79 129.425C310.345 131.09 315.183 135.352 322.304 142.212C328.185 131.949 334.867 124.115 342.349 118.712C349.83 113.308 359.737 109.161 372.069 106.27L373.797 102.814L374.006 82.4865L368.268 33.0047H360.665L372.415 15.7251C373.463 11.9177 374.5 9.15294 375.525 7.43091C376.55 5.70888 378.465 3.75062 381.269 1.55612C381.32 0.919801 383.626 0.573944 388.186 0.518547C392.746 0.463149 399.93 0.69372 409.739 1.21026C413.926 2.17196 416.806 3.43913 418.378 5.01177C419.951 6.58441 421.333 9.92513 422.525 15.0339L439.373 33.029L428.746 33.6959L427.709 66.5271C426.231 72.1577 424.849 75.9592 423.562 77.9317C422.276 79.9041 420.202 81.4017 417.342 82.4243L400.408 83.4611L398.334 103.505L399.716 106.27C408.365 108.742 414.24 110.701 417.342 112.145C424.789 115.614 431.526 120.637 436.695 129.425C440.313 135.577 444.058 144.075 449.136 152.925C453.606 160.717 461.785 174.426 473.673 194.051L485.423 204.418L491.298 216.168L505.467 226.882L512.033 205.455C498.67 185.18 491.989 172.278 491.989 166.749C491.989 164.438 493.385 162.259 494.754 160.874C496.659 158.945 499.277 157.759 503.739 158.109C506.714 158.342 509.594 160.185 512.379 163.638L552.122 270.426C548.166 283.39 544.71 293.066 541.754 299.456C538.798 305.846 534.42 312.182 528.622 318.464C520.266 323.15 513.239 325.915 507.541 326.758C501.842 327.601 492.511 326.794 479.548 324.339C475.008 322.261 472.013 320.302 470.562 318.464C465.184 311.646 462.935 302.999 460.195 298.419C456.345 291.987 454.041 285.996 453.283 280.448L435.312 222.043L357.555 219.624L350.297 278.721C346.33 294.782 342.068 306.532 337.51 313.971C332.953 321.41 327.193 326.018 320.231 327.795Z" fill="white"/>
<path fill-rule="evenodd" clip-rule="evenodd" d="M325.586 340.526C324.179 340.272 323.141 340.146 322.474 340.149C319.911 340.16 317.819 340.028 316.594 338.074C314.89 335.357 315.351 332.129 317.977 328.39L325.24 325.969H328.699L353.946 327.007L361.901 325.969L389.916 324.932C392.913 326.315 393.951 328.967 393.028 332.886C392.106 336.806 389.57 339.227 385.419 340.149L377.119 340.526L321.09 597.435H285.121C291.279 557.075 296.236 526.721 299.993 506.374C303.75 486.027 312.281 430.744 325.586 340.526ZM413.434 340.526C413.379 339.71 411.189 339.584 406.862 340.149C403.173 338.305 401.675 335.423 402.366 331.503C403.058 327.583 404.787 325.508 407.554 325.277L412.742 325.969H428.651L444.561 327.007L462.199 325.277C467.733 325.739 470.5 328.275 470.5 332.886C470.5 335.507 469.617 336.868 468.425 338.074C467.822 338.685 466.669 339.376 464.966 340.149L459.433 340.526L473.613 597.781H436.26C431.228 551.519 428 519.088 426.576 500.488C424.88 478.335 415.285 368.223 413.434 340.526Z" fill="#EC8C92"/>
<path fill-rule="evenodd" clip-rule="evenodd" d="M325.586 340.18H377.119L321.09 597.089H285.121C291.279 556.729 296.236 526.375 299.993 506.028C303.75 485.681 312.281 430.398 325.586 340.18ZM413.434 340.18H459.433L473.613 597.435H436.26C431.228 551.173 428 518.742 426.576 500.142C424.88 477.989 415.285 367.877 413.434 340.18Z" stroke="black" stroke-width="1.5"/>
<path fill-rule="evenodd" clip-rule="evenodd" d="M357.75 110.969L318.756 111.153C299.302 111.244 283.307 126.515 282.316 145.944L281.662 158.75C282.271 152.165 283.078 147.549 284.083 144.901C285.678 140.697 287.521 138.28 289.617 135.552C292.786 131.429 296.376 127.949 299.301 127.243C305.987 125.627 313.481 130.82 321.781 142.823C323.172 140.135 324.325 138.057 325.24 136.591C327.068 133.664 329.013 130.504 332.503 127.243C339.42 120.78 347.836 115.355 357.75 110.969Z" fill="black"/>
<path fill-rule="evenodd" clip-rule="evenodd" d="M325.932 325.291C329.489 326.589 336.176 327.166 345.991 327.023C351.336 326.944 360.957 325.349 369.164 324.945C373.74 324.72 380.657 324.72 389.915 324.945L397.87 303.825H405.479L407.9 324.945C415.993 325.451 421.758 325.798 425.192 325.984C432.579 326.384 438.723 326.676 443.523 326.676C451.67 326.676 457.664 326.099 461.507 324.945L443.869 226.267L361.901 229.383C360.83 244.41 356.91 260.914 350.142 278.895C348.699 282.728 348.469 287.572 347.029 292.399C344.835 299.754 342.419 306.868 339.766 311.788C337.249 316.456 332.638 320.957 325.932 325.291Z" fill="black"/>
<path d="M460.961 325.175L453.042 278.983C452.993 278.701 453.183 278.432 453.465 278.384C453.748 278.335 454.016 278.525 454.064 278.808L461.945 324.772H463.064C467.457 324.772 471.019 328.337 471.019 332.736C471.019 337.134 467.457 340.699 463.064 340.699H408.491C404.596 340.699 401.439 337.538 401.439 333.639C401.439 333.313 401.462 332.987 401.507 332.664L401.921 329.691C402.294 327.015 404.365 324.922 406.988 324.491L405.009 304.344H398.229L390.626 324.53C392.747 325.021 394.249 327.002 394.077 329.242C394.063 329.435 394.035 329.627 393.996 329.816L393.363 332.842C392.406 337.42 388.374 340.699 383.702 340.699H320.431C317.516 340.699 315.152 338.333 315.152 335.414C315.152 334.862 315.239 334.313 315.409 333.788C315.87 332.36 316.446 330.516 317.135 328.256C317.219 327.982 317.509 327.827 317.783 327.911C318.057 327.995 318.211 328.285 318.128 328.559C317.436 330.824 316.859 332.673 316.396 334.107C316.259 334.529 316.19 334.97 316.19 335.414C316.19 337.759 318.089 339.66 320.431 339.66H383.702C387.883 339.66 391.491 336.726 392.347 332.629L392.98 329.604C393.01 329.458 393.031 329.311 393.043 329.162C393.188 327.27 391.778 325.617 389.89 325.464C385.598 325.38 382.562 325.337 380.784 325.335C375.968 325.33 362.39 326.118 359.549 326.499C353.1 327.363 349.685 327.487 344.107 327.299C343.926 327.293 343.926 327.293 343.744 327.287C341.752 327.219 340.798 327.196 339.527 327.196C334.914 327.196 331.467 327.08 329.18 326.847C326.496 326.573 325.28 326.191 325.418 325.218L326.446 325.365C326.456 325.289 326.435 325.233 326.422 325.208C326.495 325.264 326.644 325.333 326.863 325.402C327.373 325.562 328.184 325.701 329.285 325.813C331.529 326.042 334.946 326.157 339.527 326.157C340.813 326.157 341.776 326.181 343.78 326.249C343.961 326.255 343.961 326.255 344.142 326.261C349.666 326.447 353.025 326.325 359.411 325.469C362.302 325.082 375.925 324.291 380.785 324.296C382.522 324.298 385.447 324.339 389.559 324.419L397.385 303.641C397.461 303.439 397.654 303.305 397.87 303.305H405.479H409.975C410.262 303.305 410.494 303.538 410.494 303.825C410.494 304.111 410.262 304.344 409.975 304.344H406.051L408.036 324.548C410.327 324.926 414.904 325.118 421.734 325.118C424.302 325.118 436.85 325.82 440.459 326.159C444.572 326.546 451.412 326.219 460.961 325.175V325.175ZM461.527 325.811L461.565 326.154C451.694 327.248 444.633 327.595 440.362 327.193C436.783 326.857 424.266 326.157 421.734 326.157C414.431 326.157 409.684 325.94 407.453 325.498L407.458 325.475C405.139 325.716 403.272 327.511 402.949 329.834L402.534 332.807C402.496 333.083 402.477 333.361 402.477 333.639C402.477 336.965 405.169 339.66 408.491 339.66H463.064C466.884 339.66 469.981 336.56 469.981 332.736C469.981 328.911 466.884 325.811 463.064 325.811H461.527Z" fill="black"/>
<path d="M401.13 83.4435L399.117 104.724C415.511 110.302 425.993 115.146 430.605 119.298C436.584 124.682 451.911 155.8 459.766 176.222C462.139 182.39 465.816 186.296 474.739 193.527L475.49 194.135C484.45 201.397 488.113 205.317 490.356 211.549C493.818 221.17 500.746 223.482 511.439 218.525C511.699 218.404 512.007 218.517 512.128 218.778C512.248 219.038 512.135 219.347 511.875 219.467C500.659 224.667 493.062 222.131 489.38 211.901C487.223 205.908 483.653 202.087 474.837 194.942L474.086 194.334C465.025 186.992 461.258 182.989 458.798 176.595C451.012 156.352 435.716 125.297 429.911 120.07C425.402 116.011 414.882 111.165 398.395 105.575C398.168 105.498 398.023 105.274 398.045 105.034L400.088 83.4435H394.066C393.779 83.4435 393.547 83.211 393.547 82.9241C393.547 82.6373 393.779 82.4048 394.066 82.4048H400.651C400.656 82.4047 400.66 82.4047 400.664 82.4048H412.185C419.323 82.4048 423.464 79.499 425.626 73.6268C427.364 68.9081 427.787 63.4539 427.787 51.7944V43.8531C427.787 43.7434 427.787 43.6541 427.787 43.4521C427.792 39.5915 427.614 37.3671 426.787 33.9755C426.768 33.9553 426.744 33.9305 426.716 33.9016C426.635 33.8206 426.522 33.7148 426.378 33.5851H376.916C376.63 33.5851 376.397 33.3526 376.397 33.0657C376.397 32.7789 376.63 32.5464 376.916 32.5464H426.576C426.703 32.5464 426.825 32.5928 426.92 32.6769C427.532 33.2197 427.715 33.4021 427.772 33.6341C428.642 37.1764 428.83 39.4807 428.825 43.4535C428.825 43.6553 428.824 43.744 428.824 43.8531V51.7944C428.824 63.5853 428.396 69.1078 426.6 73.9861C424.288 80.2655 419.759 83.4435 412.185 83.4435H401.13ZM552.662 269.746L553.657 270.04C544.967 299.586 535.738 316.809 525.858 321.739C510.305 329.501 491.286 330.097 475.805 322.496C473.759 321.492 472.153 320.089 470.523 317.932C469.361 316.395 468.214 314.546 466.384 311.335C465.906 310.495 464.081 307.261 463.812 306.787C462.666 304.765 461.676 303.043 460.62 301.249C459.174 298.792 457.122 293.368 454.442 284.939L455.431 284.624C458.086 292.977 460.121 298.356 461.514 300.722C462.573 302.521 463.566 304.248 464.715 306.274C464.984 306.75 466.808 309.983 467.286 310.82C469.095 313.994 470.223 315.814 471.35 317.306C472.888 319.339 474.372 320.636 476.262 321.564C491.442 329.017 510.122 328.431 525.395 320.81C534.925 316.054 544.051 299.023 552.662 269.746Z" fill="black"/>
<path fill-rule="evenodd" clip-rule="evenodd" d="M410.321 109.585L416.546 112.008C420.927 125.396 424.27 136.822 426.576 146.286C428.882 155.75 430.38 169.83 431.072 188.527L422.426 186.103C423.117 171.1 421.849 157.827 418.621 146.286C417.215 141.259 414.448 129.025 410.321 109.585ZM357.405 110.97L363.284 108.546C364.668 118.779 365.359 126.858 365.359 132.783C365.359 138.707 365.359 144.709 365.359 150.787L356.367 163.598C357.751 159.443 358.442 150.095 358.442 135.553C358.442 121.01 358.096 112.816 357.405 110.97Z" fill="black"/>
<path d="M410.159 109.692L409.96 108.752L417.309 111.613L417.385 111.846C421.77 125.246 425.117 136.684 427.426 146.163C429.742 155.667 431.244 169.779 431.937 188.508L431.963 189.219L422.234 186.492L422.253 186.079C422.943 171.128 421.68 157.91 418.468 146.426C417.058 141.384 414.29 129.145 410.159 109.692ZM419.467 146.146C422.681 157.638 423.961 170.827 423.308 185.714L430.873 187.835C430.171 169.524 428.684 155.712 426.418 146.409C424.129 137.014 420.815 125.679 416.475 112.403L411.374 110.417C415.389 129.3 418.088 141.215 419.467 146.146ZM357.265 111.152L357.088 110.681L364.054 107.809L364.144 108.476C365.531 118.73 366.224 126.831 366.224 132.782V150.951L355.101 166.798L356.221 163.433C357.58 159.351 358.269 150.036 358.269 135.552C358.269 121.125 357.923 112.908 357.265 111.152ZM359.307 135.552C359.307 147.559 358.838 156.036 357.888 161.021L365.187 150.623V132.782C365.187 127.014 364.527 119.179 363.206 109.282L358.38 111.272C359.008 113.872 359.307 121.897 359.307 135.552Z" fill="black"/>
<path d="M400.485 111.117L401.48 110.822L448.529 269.795C451.217 283.847 460.908 290.841 477.763 290.841C494.626 290.841 508.489 279.572 519.369 256.937L520.304 257.387C509.267 280.349 495.081 291.879 477.763 291.879C460.436 291.879 450.298 284.562 447.522 270.041L400.485 111.117ZM426.063 239.691L427.089 239.85C421.75 274.473 411.715 291.879 396.833 291.879C384.792 291.879 376.781 254.378 373.488 182.665C372.867 169.143 372.521 146.054 372.45 113.394L373.487 113.392C373.559 146.038 373.904 169.114 374.524 182.617C377.774 253.396 385.774 290.841 396.833 290.841C411.002 290.841 420.796 273.854 426.063 239.691Z" fill="black"/>
<path fill-rule="evenodd" clip-rule="evenodd" d="M477.748 222.66L513.987 218.851L516.13 239.245L479.891 243.054L477.748 222.66ZM444.135 186.1L440.73 153.696C442.096 150.192 445.696 148.134 451.53 147.521C457.364 146.907 461.314 148.172 463.379 151.316L466.785 183.719L444.135 186.1ZM539.263 176.101L516.614 178.482L513.208 146.078C514.575 142.575 518.175 140.516 524.009 139.903C529.843 139.29 533.792 140.555 535.858 143.698L539.263 176.101Z" fill="black"/>
<path fill-rule="evenodd" clip-rule="evenodd" d="M441.29 222.08L436.026 172.002C438.232 166.577 444.002 163.374 453.336 162.393C462.67 161.412 468.98 163.345 472.265 168.193L477.529 218.271L441.29 222.08ZM550.007 210.653L513.768 214.462L508.505 164.384C510.71 158.959 516.48 155.756 525.814 154.775C535.149 153.794 541.459 155.727 544.744 160.575L550.007 210.653Z" fill="white"/>
<path fill-rule="evenodd" clip-rule="evenodd" d="M441.061 222.22L435.798 172.142C438.004 166.717 443.774 163.514 453.108 162.533C462.442 161.552 468.752 163.485 472.037 168.333L477.301 218.411L441.061 222.22ZM549.779 210.793L513.54 214.602L508.277 164.524C510.482 159.099 516.252 155.896 525.586 154.915C534.921 153.934 541.231 155.867 544.516 160.715L549.779 210.793Z" fill="#FFDCE2" stroke="black" stroke-width="1.5" stroke-linecap="round" stroke-linejoin="round"/>
<path fill-rule="evenodd" clip-rule="evenodd" d="M440.172 277.584L434.083 219.65C437.234 213.312 445.226 209.468 458.061 208.119C470.896 206.77 479.513 208.868 483.912 214.413L490.001 272.347L440.172 277.584ZM562.48 264.729L512.651 269.967L506.562 212.033C509.712 205.694 517.705 201.85 530.54 200.501C543.374 199.152 551.991 201.25 556.391 206.795L562.48 264.729Z" fill="#FFDCE2"/>
<path d="M440.067 278.118C439.782 278.148 439.527 277.941 439.497 277.656L433.408 219.722C433.397 219.623 433.415 219.524 433.459 219.436C436.706 212.904 444.854 208.985 457.847 207.619C470.84 206.254 479.625 208.393 484.159 214.107C484.22 214.185 484.258 214.278 484.268 214.376L490.358 272.31C490.388 272.595 490.181 272.851 489.896 272.881L440.067 278.118ZM489.271 271.902L483.253 214.636C478.958 209.347 470.54 207.33 457.956 208.652C445.371 209.975 437.557 213.699 434.455 219.765L440.474 277.031L489.271 271.902ZM562.836 264.692C562.866 264.977 562.659 265.233 562.374 265.263L512.545 270.5C512.261 270.53 512.005 270.323 511.975 270.038L505.886 212.104C505.876 212.006 505.894 211.907 505.938 211.818C509.184 205.286 517.333 201.367 530.326 200.002C543.318 198.636 552.104 200.775 556.637 206.489C556.699 206.567 556.737 206.66 556.747 206.758L562.836 264.692ZM561.75 264.284L555.731 207.019C551.437 201.73 543.018 199.712 530.434 201.035C517.85 202.357 510.035 206.081 506.934 212.147L512.953 269.413L561.75 264.284Z" fill="black"/>
<path fill-rule="evenodd" clip-rule="evenodd" d="M465.82 283.48C452.06 284.926 440.506 282.294 440.013 277.601C439.519 272.908 450.274 267.931 464.034 266.485C477.794 265.039 489.348 267.671 489.842 272.364C490.335 277.057 479.58 282.034 465.82 283.48ZM538.299 275.862C524.539 277.309 512.985 274.676 512.491 269.983C511.998 265.29 522.753 260.314 536.513 258.867C550.273 257.421 561.827 260.053 562.32 264.746C562.814 269.439 552.059 274.416 538.299 275.862Z" fill="black"/>
<path d="M427.764 231.872C432.114 231.415 435.27 227.516 434.812 223.163C434.355 218.811 430.457 215.653 426.107 216.11C421.757 216.568 418.601 220.467 419.058 224.819C419.516 229.172 423.413 232.33 427.764 231.872ZM427.655 230.839C423.875 231.237 420.488 228.493 420.09 224.711C419.693 220.929 422.435 217.541 426.216 217.143C429.996 216.746 433.383 219.49 433.781 223.272C434.178 227.054 431.436 230.442 427.655 230.839Z" fill="black"/>
<path d="M261.699 240.442L268.688 237.897C268.957 237.799 269.255 237.938 269.353 238.208C269.451 238.477 269.312 238.775 269.043 238.873L262.828 241.136L269.129 244.863C269.376 245.009 269.458 245.327 269.312 245.574C269.166 245.821 268.848 245.903 268.601 245.757L261.566 241.595L261.434 241.643C261.373 241.666 261.31 241.676 261.248 241.675C248.546 258.609 245.608 275.314 252.398 291.855C259.018 307.98 261.993 313.735 267.007 318.702C272.789 324.429 280.75 327.405 294.516 328.93C320.475 331.806 335.637 323.194 342.389 303.998C346.608 292.005 349.022 283.606 349.627 278.83C349.663 278.545 349.923 278.344 350.207 278.38C350.491 278.416 350.692 278.676 350.656 278.961C350.039 283.832 347.61 292.283 343.368 304.343C336.448 324.014 320.823 332.89 294.402 329.962C280.425 328.414 272.253 325.359 266.278 319.44C261.125 314.337 258.115 308.513 251.439 292.25C244.464 275.259 247.54 258.078 260.631 240.77C262.039 223.196 268.412 206.747 279.741 191.433C291.036 176.166 302.676 164.688 314.665 157.003C322.768 135.51 334.533 121.116 349.966 113.853C357.655 110.234 363.426 107.829 367.289 106.635C369.876 105.835 371.717 105.54 372.747 105.865L374.525 73.2012C374.541 72.9148 374.785 72.6953 375.071 72.7094C375.358 72.7265 375.577 72.9713 375.561 73.2577L373.711 107.237C373.675 107.91 372.675 107.883 372.675 107.209C372.675 106.573 371.073 106.551 367.595 107.627C363.789 108.804 358.056 111.193 350.407 114.793C335.204 121.948 323.591 136.183 315.575 157.53C315.536 157.635 315.463 157.725 315.368 157.785C303.444 165.397 291.845 176.818 280.575 192.051C269.447 207.093 263.158 223.22 261.699 240.442Z" fill="black"/>
<path fill-rule="evenodd" clip-rule="evenodd" d="M373.314 103.006L368.455 115.31C368.174 116.021 368.523 116.825 369.234 117.105C369.513 117.216 369.822 117.232 370.112 117.152L390.865 111.394L404.6 116.286C405.319 116.543 406.111 116.167 406.367 115.447C406.52 115.017 406.451 114.538 406.182 114.169L398.562 103.699C397.148 104.93 394.12 105.545 389.478 105.545C384.835 105.545 379.447 104.699 373.314 103.006Z" fill="white"/>
<path d="M390.541 111.772L370.596 117.306C370.198 117.416 369.774 117.394 369.389 117.242C368.412 116.855 367.933 115.749 368.319 114.77L373.177 102.469C373.275 102.222 373.542 102.089 373.798 102.159C379.889 103.84 385.231 104.68 389.823 104.68C394.349 104.68 397.276 104.084 398.567 102.96C398.796 102.761 399.147 102.8 399.327 103.046L406.944 113.513C407.315 114.021 407.41 114.68 407.199 115.273C406.847 116.264 405.759 116.781 404.769 116.429L391.581 111.731C391.605 111.928 391.632 112.159 391.663 112.425C391.792 113.551 391.987 115.298 392.246 117.665C392.765 122.397 393.544 129.611 394.581 139.306C394.612 139.591 394.405 139.847 394.121 139.878C393.836 139.908 393.58 139.702 393.549 139.416C392.512 129.722 391.734 122.509 391.215 117.778C390.956 115.413 390.761 113.668 390.632 112.544C390.597 112.242 390.567 111.984 390.541 111.772ZM390.529 105.713C390.643 106.159 390.751 106.654 390.855 107.196C391.025 108.078 391.158 108.927 391.315 110.047L391.381 110.521C391.383 110.534 391.385 110.547 391.386 110.559L405.117 115.45C405.567 115.61 406.062 115.375 406.222 114.925C406.317 114.655 406.274 114.356 406.106 114.125L398.799 104.085C397.232 105.13 394.484 105.658 390.529 105.713ZM390.365 110.743C390.361 110.719 390.357 110.694 390.354 110.666L390.287 110.191C390.133 109.087 390.002 108.253 389.836 107.392C389.715 106.762 389.589 106.2 389.456 105.717C384.963 105.674 379.802 104.863 373.971 103.283L369.284 115.152C369.109 115.597 369.326 116.1 369.77 116.276C369.945 116.345 370.138 116.355 370.319 116.305L390.365 110.743Z" fill="black"/>
<path fill-rule="evenodd" clip-rule="evenodd" d="M319.707 221.869C348.407 176.071 364.893 150.796 369.164 146.042C372.497 142.332 378.207 142.027 381.917 145.361C384.693 147.855 385.649 151.801 384.321 155.29L374.006 182.397" fill="white"/>
<path d="M320.025 222.388C348.693 176.643 365.189 151.352 369.429 146.633C372.573 143.135 377.954 142.85 381.448 145.997C384.063 148.352 384.962 152.074 383.71 155.364L373.401 182.456L374.37 182.826L384.679 155.734C386.084 152.043 385.076 147.866 382.142 145.225C378.222 141.694 372.184 142.014 368.658 145.938C364.355 150.727 347.88 175.986 319.146 221.836L320.025 222.388Z" fill="black"/>
<path fill-rule="evenodd" clip-rule="evenodd" d="M383.816 53.5138C383.009 53.2754 382.154 53.1475 381.269 53.1475C376.303 53.1475 372.277 57.178 372.277 62.1497C372.277 66.3741 375.183 69.9188 379.103 70.8892L378.697 79.2655C378.588 81.4993 376.729 83.2454 374.493 83.2141L363.82 83.0643C363.136 83.0547 362.456 82.9528 361.798 82.7613C357.764 81.5859 355.446 77.3624 356.622 73.3279L368.352 33.0657H369.741L369.746 33.0579L371.373 33.0657H377.465L377.466 33.095L391.935 33.1646C390.264 40.8481 388.764 45.9826 387.434 48.5681C386.484 50.4142 385.279 52.0627 383.816 53.5138ZM432.972 33.0657C434.334 38.8363 432.226 41.7217 426.649 41.7217C421.073 41.7217 412.707 38.8363 401.554 33.0657H432.972Z" fill="black"/>
<path fill-rule="evenodd" clip-rule="evenodd" d="M304.964 233.955L351.926 192.11C358.762 186.019 367.631 182.706 376.787 182.824L430.26 183.512C437.565 183.606 443.535 189.367 443.89 196.664C444.226 203.569 438.9 209.44 431.994 209.776C431.837 209.783 431.68 209.788 431.523 209.79L386.25 210.285C383.48 210.315 381.26 212.585 381.29 215.355C381.29 215.357 381.29 215.359 381.29 215.36C381.324 218.165 383.566 220.442 386.369 220.518L433.1 221.799C439.467 221.974 444.548 227.168 444.582 233.538C444.615 239.815 439.553 244.931 433.276 244.964C433.256 244.964 433.236 244.964 433.216 244.964H388.671C385.932 244.964 383.711 247.185 383.711 249.925C383.711 249.945 383.711 249.964 383.711 249.984C383.747 252.997 385.668 255.663 388.514 256.651L417.037 266.553C421.973 268.267 424.585 273.657 422.872 278.593C422.796 278.812 422.712 279.029 422.62 279.242C420.336 284.529 414.386 287.19 408.923 285.367L362.553 269.893L337.467 286.636C324.601 295.222 307.211 291.754 298.624 278.888C297.817 277.678 297.105 276.407 296.495 275.087C294.31 270.357 293.628 263.581 294.45 254.759C295.197 246.744 298.954 239.31 304.964 233.955Z" fill="white"/>
<path d="M303.096 283.131L311.843 277.502C308.841 274.633 306.418 271.108 304.371 267.009C301.404 261.069 302.379 249.709 307.241 232.857L305.584 234.333C299.663 239.61 295.961 246.939 295.228 254.841C294.419 263.564 295.093 270.242 297.23 274.869C297.826 276.158 298.52 277.399 299.308 278.582C300.428 280.263 301.701 281.782 303.096 283.131ZM303.88 283.861C312.997 292.01 326.786 293.317 337.428 286.214L339.849 284.599C330.231 286.337 322.409 284.918 316.141 280.89C314.891 280.088 313.725 279.199 312.632 278.229L303.88 283.861ZM307.793 230.974C307.794 230.971 307.795 230.969 307.796 230.966C307.855 230.768 308.021 230.631 308.212 230.601L351.849 191.719C358.78 185.543 367.768 182.185 377.046 182.305L430.546 182.993C438.116 183.091 444.304 189.068 444.672 196.638C445.022 203.83 439.482 209.944 432.298 210.294C432.135 210.302 431.971 210.307 431.807 210.309L386.515 210.804C384.034 210.832 382.046 212.866 382.073 215.349L382.073 215.354C382.103 217.879 384.12 219.93 386.642 219.999L433.391 221.28C440.031 221.462 445.33 226.885 445.365 233.535C445.399 240.099 440.112 245.448 433.556 245.483L433.493 245.483H388.93C386.48 245.483 384.494 247.472 384.494 249.925C384.494 249.951 384.494 249.951 384.494 249.978C384.528 252.771 386.308 255.244 388.944 256.159L417.48 266.065C422.678 267.87 425.431 273.552 423.629 278.757C423.548 278.99 423.458 279.221 423.36 279.448C420.969 284.983 414.746 287.769 409.031 285.862L362.894 270.466L338.003 287.078C324.895 295.827 307.183 292.281 298.444 279.158C297.627 277.931 296.907 276.643 296.288 275.305C294.061 270.484 293.37 263.634 294.195 254.745C294.953 246.581 298.776 239.009 304.894 233.557L307.793 230.974ZM308.704 231.554C303.511 249.044 302.396 260.734 305.299 266.545C308.167 272.287 311.779 276.854 316.701 280.016C323.109 284.133 331.221 285.427 341.386 283.235C341.528 283.204 341.669 283.235 341.781 283.309L362.741 269.32L409.359 284.876C414.564 286.613 420.231 284.077 422.408 279.035C422.496 278.832 422.576 278.626 422.648 278.417C424.263 273.754 421.797 268.664 417.14 267.047L388.604 257.14C385.554 256.082 383.495 253.222 383.457 249.991C383.456 249.958 383.456 249.958 383.456 249.925C383.456 246.898 385.907 244.445 388.93 244.445H433.493L433.55 244.444C439.534 244.413 444.359 239.531 444.327 233.541C444.295 227.451 439.443 222.485 433.362 222.319L386.614 221.037C383.535 220.953 381.073 218.45 381.036 215.367L381.035 215.361C381.002 212.304 383.45 209.799 386.503 209.766L431.796 209.27C431.947 209.269 432.097 209.264 432.248 209.257C438.859 208.935 443.958 203.308 443.636 196.689C443.295 189.666 437.555 184.122 430.532 184.032L377.032 183.343C368.013 183.227 359.277 186.492 352.539 192.495L308.704 231.554Z" fill="black"/>
<path fill-rule="evenodd" clip-rule="evenodd" d="M539.033 195.602L539.04 197.01C539.073 204.19 544.904 209.994 552.084 209.994H561.927C553.794 210.619 548.491 213.274 546.017 217.957C542.121 225.334 544.943 234.472 552.32 238.368C554.494 239.516 556.915 240.116 559.374 240.116H563.656L562.486 240.691C554.257 244.729 550.859 254.674 554.898 262.904C555.141 263.4 555.409 263.884 555.701 264.353C559.633 269.83 567.261 271.082 572.737 267.15C573.103 266.887 573.454 266.604 573.789 266.303L581.424 259.424C585.64 255.625 587.623 249.936 586.683 244.339C586.614 243.932 586.548 243.563 586.482 243.233C586.085 241.214 584.701 238.213 582.332 234.23C583.946 230.999 584.407 227.075 583.716 222.458C583.024 217.842 581.064 213.802 577.836 210.34C579.408 206.31 579.639 201.808 578.528 196.837C578.088 194.868 577.479 193.19 576.7 191.803C575.272 189.259 572.699 187.566 569.798 187.262L550.492 185.235C544.793 184.636 539.688 188.771 539.09 194.47C539.05 194.846 539.032 195.224 539.033 195.602Z" fill="white"/>
<path d="M563.801 239.251L582.189 233.456C583.674 230.364 584.09 226.612 583.428 222.189C582.753 217.689 580.849 213.756 577.708 210.376L577.705 210.513L561.766 210.2C554.037 210.871 549.036 213.432 546.701 217.854C542.941 224.973 545.658 233.796 552.769 237.56C554.867 238.671 557.204 239.251 559.577 239.251H563.801ZM564.074 240.254L562.93 240.816C554.97 244.722 551.681 254.348 555.583 262.316C555.82 262.801 556.082 263.274 556.348 263.704C560.117 268.954 567.423 270.151 572.667 266.377C573.014 266.128 573.347 265.859 573.665 265.573L581.293 258.7C585.384 255.014 587.308 249.489 586.392 244.055C586.326 243.661 586.261 243.306 586.199 242.987C585.827 241.1 584.534 238.263 582.321 234.503L564.074 240.254ZM562.153 209.169L577.703 209.474C579.122 205.629 579.305 201.343 578.247 196.604C577.818 194.684 577.226 193.055 576.476 191.716C575.13 189.316 572.705 187.719 569.971 187.432L550.662 185.405C545.248 184.836 540.399 188.77 539.831 194.19C539.793 194.547 539.776 194.906 539.777 195.265L539.784 196.661C539.816 203.556 545.408 209.128 552.295 209.128H562.152L562.153 209.169ZM545.784 217.368C547.63 213.872 550.972 211.475 555.785 210.167H552.295C544.837 210.167 538.781 204.133 538.746 196.666L538.739 195.27C538.738 194.873 538.758 194.476 538.799 194.081C539.427 188.091 544.786 183.744 550.77 184.372L570.079 186.399C573.148 186.721 575.87 188.514 577.38 191.208C578.184 192.641 578.809 194.364 579.259 196.377C580.364 201.322 580.166 205.826 578.66 209.878C581.829 213.364 583.762 217.42 584.454 222.035C585.142 226.631 584.71 230.576 583.146 233.86C585.456 237.771 586.812 240.737 587.216 242.786C587.281 243.114 587.347 243.48 587.415 243.882C588.39 249.666 586.342 255.548 581.987 259.472L574.359 266.345C574.013 266.657 573.65 266.949 573.273 267.221C567.563 271.329 559.609 270.026 555.486 264.282C555.182 263.793 554.904 263.29 554.651 262.774C550.626 254.555 553.788 244.679 561.694 240.29H559.577C557.035 240.29 554.532 239.668 552.284 238.478C544.666 234.446 541.756 224.995 545.784 217.368ZM552.28 188.17C552.566 188.166 552.802 188.395 552.806 188.682C552.81 188.969 552.581 189.205 552.295 189.209C548.47 189.263 546.773 191.55 547.102 196.341C547.432 201.154 549.135 203.314 552.255 203.096C552.54 203.076 552.788 203.291 552.808 203.578C552.828 203.864 552.613 204.112 552.327 204.132C548.533 204.397 546.431 201.732 546.067 196.412C545.7 191.071 547.805 188.233 552.28 188.17ZM557.238 217.787C557.524 217.763 557.775 217.975 557.799 218.261C557.823 218.546 557.611 218.798 557.326 218.822C553.515 219.142 551.981 221.543 552.643 226.299C553.308 231.077 555.157 233.113 558.254 232.678C558.538 232.638 558.8 232.836 558.84 233.12C558.88 233.404 558.683 233.666 558.399 233.706C554.632 234.236 552.35 231.724 551.615 226.442C550.877 221.139 552.779 218.162 557.238 217.787ZM564.511 248.073C564.791 248.015 565.066 248.195 565.125 248.476C565.184 248.756 565.004 249.031 564.723 249.09C560.98 249.873 559.75 252.442 560.987 257.083C562.229 261.744 564.313 263.539 567.334 262.73C567.611 262.655 567.895 262.82 567.969 263.097C568.044 263.374 567.879 263.659 567.603 263.733C563.929 264.717 561.358 262.502 559.984 257.35C558.606 252.176 560.131 248.989 564.511 248.073Z" fill="black"/>
<path fill-rule="evenodd" clip-rule="evenodd" d="M113.721 321.786L132.355 516.396H141.949L132.812 319.912C132.572 314.756 128.198 310.771 123.042 311.01C122.884 311.018 122.727 311.029 122.569 311.044C117.162 311.572 113.203 316.378 113.721 321.786Z" fill="white"/>
<path d="M113.143 321.419L131.831 516.588H142.554L133.387 319.462C133.132 313.988 128.488 309.756 123.013 310.011C122.845 310.019 122.678 310.031 122.511 310.047C116.787 310.605 112.595 315.693 113.143 321.419ZM132.878 515.436L114.29 321.309C113.802 316.216 117.531 311.69 122.623 311.193C122.77 311.179 122.918 311.168 123.067 311.161C127.906 310.936 132.011 314.677 132.236 319.516L141.347 515.436H132.878Z" fill="black"/>
<path d="M126.298 521.433C126.18 521.72 125.853 521.857 125.567 521.74C125.28 521.622 125.143 521.295 125.26 521.009C132.656 502.926 136.961 490.291 138.172 483.135C138.224 482.83 138.513 482.624 138.818 482.676C139.123 482.728 139.329 483.017 139.277 483.322C138.048 490.584 133.723 503.277 126.298 521.433ZM137.761 458.164C137.86 458.458 137.702 458.775 137.408 458.874C137.115 458.972 136.797 458.814 136.698 458.521C133.407 448.706 126.757 440.332 116.731 433.392C116.477 433.216 116.413 432.867 116.589 432.612C116.766 432.358 117.115 432.294 117.369 432.47C127.586 439.542 134.39 448.109 137.761 458.164ZM129.72 497.911C129.592 498.193 129.26 498.318 128.978 498.19C128.696 498.062 128.571 497.73 128.698 497.448C129.698 495.242 130.368 493.445 130.706 492.064C135.359 473.094 132.475 459.231 124.238 449.378C124.039 449.141 124.071 448.787 124.308 448.589C124.546 448.39 124.899 448.422 125.098 448.659C133.57 458.793 136.531 473.023 131.795 492.331C131.438 493.789 130.746 495.647 129.72 497.911ZM116.506 317.191C116.467 316.883 116.684 316.603 116.991 316.564C117.298 316.524 117.579 316.742 117.618 317.049C122.476 355.127 140.705 375.264 172.383 377.628C172.692 377.651 172.924 377.92 172.9 378.229C172.877 378.537 172.609 378.769 172.3 378.746C140.051 376.339 121.427 355.765 116.506 317.191ZM124.714 316.614C124.684 316.305 124.91 316.032 125.219 316.003C125.527 315.973 125.8 316.199 125.83 316.508C129.014 350.037 144.171 367.518 171.403 369.521C171.711 369.544 171.943 369.813 171.921 370.121C171.898 370.43 171.629 370.662 171.32 370.639C143.501 368.592 127.946 350.653 124.714 316.614Z" fill="black"/>
<path fill-rule="evenodd" clip-rule="evenodd" d="M402.366 56.6101C401.029 56.6101 399.945 55.37 399.945 53.8402C399.945 52.3104 401.029 51.0703 402.366 51.0703C403.703 51.0703 404.787 52.3104 404.787 53.8402C404.787 55.37 403.703 56.6101 402.366 56.6101ZM423.809 56.6101C422.472 56.6101 421.388 55.37 421.388 53.8402C421.388 52.3104 422.472 51.0703 423.809 51.0703C425.146 51.0703 426.23 52.3104 426.23 53.8402C426.23 55.37 425.146 56.6101 423.809 56.6101ZM397.574 51.4059C397.389 51.6248 397.062 51.652 396.843 51.4666C396.625 51.2812 396.597 50.9535 396.783 50.7346C396.865 50.6372 397.014 50.4748 397.221 50.2689C397.563 49.9285 397.949 49.5885 398.371 49.2704C399.602 48.3432 400.889 47.781 402.187 47.781C404.066 47.781 405.094 48.2305 406.132 49.3708C406.296 49.5509 406.462 49.7477 406.681 50.0169C406.745 50.0961 407.141 50.5899 407.265 50.7422C407.446 50.9646 407.412 51.2918 407.19 51.4729C406.968 51.6541 406.641 51.6207 406.46 51.3983C406.333 51.2424 405.936 50.7473 405.875 50.6713C405.668 50.4162 405.514 50.2331 405.365 50.0704C404.525 49.1473 403.776 48.8197 402.187 48.8197C401.153 48.8197 400.062 49.2962 398.995 50.1003C398.613 50.3881 398.263 50.6973 397.952 51.0061C397.767 51.1897 397.638 51.3303 397.574 51.4059ZM419.721 51.3913C419.544 51.6168 419.218 51.6558 418.993 51.4785C418.767 51.3012 418.728 50.9747 418.905 50.7492C418.982 50.6515 419.12 50.4889 419.313 50.2827C419.632 49.9416 419.991 49.6009 420.384 49.2819C421.534 48.3483 422.741 47.781 423.964 47.781C425.728 47.781 426.698 48.2376 427.668 49.3852C427.82 49.5654 427.974 49.7623 428.177 50.0316C428.236 50.1108 428.604 50.6046 428.719 50.7569C428.892 50.9857 428.847 51.3114 428.618 51.4845C428.39 51.6575 428.065 51.6124 427.892 51.3836C427.774 51.2276 427.405 50.7326 427.348 50.6566C427.156 50.4016 427.013 50.2186 426.876 50.0561C426.101 49.1403 425.42 48.8197 423.964 48.8197C423.023 48.8197 422.02 49.2912 421.037 50.0888C420.684 50.3757 420.359 50.6841 420.071 50.9923C419.9 51.1756 419.78 51.3159 419.721 51.3913ZM416.08 60.9381H420.164L415.596 49.1811C415.493 48.9138 415.625 48.6128 415.892 48.5088C416.159 48.4048 416.46 48.5373 416.563 48.8046L421.405 61.2692C421.538 61.6097 421.287 61.9768 420.922 61.9768H416.08C415.793 61.9768 415.561 61.7443 415.561 61.4574C415.561 61.1706 415.793 60.9381 416.08 60.9381ZM413.558 68.1475C413.305 68.283 412.991 68.1878 412.856 67.935C412.72 67.6821 412.816 67.3674 413.068 67.2319C414.947 66.2241 416.757 66.2241 418.426 67.2468C418.67 67.3966 418.747 67.7163 418.597 67.9609C418.448 68.2055 418.129 68.2824 417.884 68.1327C416.54 67.3088 415.122 67.3088 413.558 68.1475Z" fill="black"/>
<path fill-rule="evenodd" clip-rule="evenodd" d="M1 361.897L38.766 478.628L225.236 453.581V317L41.0232 353.883L38.766 369.931L26.6851 356.754L1 361.897Z" fill="#6784CE"/>
<path d="M26.8083 356.825C26.6416 356.643 26.3919 356.561 26.15 356.61L0.567114 361.732C0.153648 361.815 -0.0952694 362.24 0.0345297 362.641L37.6503 478.908C37.7553 479.232 38.0773 479.435 38.4152 479.39L224.143 454.442C224.493 454.395 224.755 454.096 224.755 453.743V317.706C224.755 317.26 224.347 316.927 223.911 317.014L40.4311 353.75C40.1374 353.809 39.9129 354.047 39.8711 354.344L37.8311 368.848L26.8083 356.825ZM26.0372 358.071L37.8015 370.903C38.2043 371.342 38.9367 371.114 39.0198 370.524L41.1983 355.035L223.344 318.566V453.126L38.8111 477.913L1.62033 362.96L26.0372 358.071Z" fill="black"/>
<path fill-rule="evenodd" clip-rule="evenodd" d="M1.5188 610.411H47.5177C65.6362 563.203 82.2713 533.729 97.4231 521.989C98.3181 521.296 92.981 513.607 81.4116 498.922C88.9108 504.859 94.0987 508.667 96.9751 510.348C98.3296 511.14 98.4449 499.829 97.321 476.417L109.706 513.947C114.42 511.577 118.016 509.916 120.493 508.963C155.31 495.575 183.9 529.391 206.266 610.411H673.863" fill="white"/>
<path d="M96.7133 510.631C97.2069 510.919 97.652 510.652 97.8949 510.132C98.0526 509.795 98.174 509.284 98.2724 508.579C98.4599 507.237 98.5672 505.147 98.5962 502.299C98.6476 497.259 98.4537 489.83 98.0147 480.009L109.213 513.944C109.312 514.245 109.656 514.388 109.939 514.245C114.639 511.882 118.222 510.227 120.68 509.282C155.086 496.052 183.472 529.626 205.766 610.384C205.828 610.609 206.032 610.765 206.266 610.765H673.863C674.15 610.765 674.382 610.532 674.382 610.246C674.382 609.959 674.15 609.727 673.863 609.727H206.661C184.238 528.72 155.478 494.789 120.307 508.314C117.906 509.237 114.476 510.815 110.01 513.049L97.8136 476.089C97.6244 475.515 96.7738 475.673 96.8028 476.276C97.3643 487.973 97.6162 496.645 97.5587 502.288C97.5301 505.095 97.4248 507.148 97.2448 508.436C97.171 508.964 97.0853 509.354 96.9965 509.593C94.1018 507.86 89.0082 504.109 81.7336 498.35C81.2512 497.968 80.6233 498.595 81.0041 499.078C86.7828 506.413 91.0039 511.999 93.6653 515.833C94.9888 517.739 95.9238 519.209 96.4674 520.235C96.7286 520.728 96.8951 521.111 96.966 521.372C96.9798 521.423 96.9891 521.466 96.9945 521.5C81.8103 533.345 65.2186 562.743 47.1612 609.727H1.51878C1.23227 609.727 1 609.959 1 610.246C1 610.532 1.23227 610.765 1.51878 610.765H47.5177C47.7324 610.765 47.925 610.632 48.002 610.432C66.088 563.309 82.6874 533.898 97.7409 522.234C98.5914 521.575 97.5498 519.609 94.5177 515.241C92.2683 512.001 88.919 507.526 84.4687 501.816C90.1887 506.265 94.2664 509.201 96.7133 510.631Z" fill="black"/>
<path d="M407.711 0H388.063C379.235 0 372.069 7.11997 371.981 15.9364L360.317 32.7698C360.078 33.1142 360.324 33.5852 360.743 33.5852H439.598C440.056 33.5852 440.289 33.035 439.971 32.7052L423.1 15.1965C422.987 6.78441 416.14 0 407.711 0ZM372.925 16.3961C372.986 16.3092 373.018 16.2059 373.018 16.1001C373.018 7.78193 379.754 1.03872 388.063 1.03872H407.711C415.638 1.03872 422.064 7.4719 422.064 15.4076C422.064 15.5421 422.116 15.6714 422.209 15.7682L438.377 32.5464H361.734L372.925 16.3961Z" fill="black"/>
<path fill-rule="evenodd" clip-rule="evenodd" d="M422.37 15.7539L372.276 16.4464L368.818 21.64H427.959L422.37 15.7539Z" fill="black"/>
<path d="M422.709 14.8882L372.616 15.5808C372.445 15.5831 372.286 15.6696 372.191 15.812L368.733 21.0056C368.503 21.3507 368.75 21.813 369.164 21.813H428.306C428.761 21.813 428.996 21.2666 428.682 20.9358L423.092 15.0497C422.992 14.9448 422.853 14.8863 422.709 14.8882ZM427.097 20.7743H370.134L372.903 16.6156L422.496 15.93L427.097 20.7743Z" fill="black"/>
<path fill-rule="evenodd" clip-rule="evenodd" d="M282.008 596.742L276.128 625.134H298.955H387.494C382.388 614.348 376.393 606.846 369.51 602.629C362.626 598.411 350.06 596.449 331.811 596.742L341.149 548.269L285.121 548.615L284.429 584.97L282.008 596.742Z" fill="white"/>
<path fill-rule="evenodd" clip-rule="evenodd" d="M432.455 592.588V625.48L446.29 625.134H534.829C529.723 614.347 523.728 606.846 516.844 602.628C509.961 598.411 497.394 596.449 479.146 596.742L487.792 549.046L427.268 548.615L431.764 584.97L432.455 592.588Z" fill="white"/>
<path fill-rule="evenodd" clip-rule="evenodd" d="M284.429 585.317C289.725 586.174 293.875 589.521 296.88 595.358C299.885 601.194 301.499 609.042 301.722 618.902L277.512 618.556" fill="#FFF3A1"/>
<path fill-rule="evenodd" clip-rule="evenodd" d="M432.456 585.317C441.901 587.559 448.127 591.599 451.132 597.435C454.137 603.271 455.52 610.427 455.282 618.902L432.456 618.556V585.317Z" fill="#FFF3A1"/>
<path d="M301.633 548.341L305.485 521.781H297.226V520.744H305.635L307.694 506.547H300.338V505.509H340.458V506.547H332.416L329.785 520.744H337.345V521.781H329.593L324.699 548.198L341.778 548.093L334.128 587.806L336.77 580.561C336.881 580.256 337.019 579.963 337.183 579.683C338.683 577.127 341.971 576.271 344.527 577.771C344.957 578.024 345.345 578.343 345.676 578.717C347.411 580.676 347.229 583.67 345.27 585.405L332.974 596.295C335.289 595.719 340.971 594.259 349.319 592.086C349.597 592.013 349.88 592.18 349.952 592.457C350.024 592.734 349.858 593.018 349.581 593.09C343.499 594.673 339.113 595.807 336.219 596.544C352.188 596.617 363.367 598.603 369.781 602.533C376.761 606.809 382.817 614.388 387.963 625.258L388.314 625.999H275.491L281.5 596.984L283.911 585.259L284.612 548.446L301.633 548.341ZM302.683 548.334L312.716 548.272L316.77 521.781H306.533L302.683 548.334ZM313.766 548.266L323.642 548.205L328.538 521.781H317.82L313.766 548.266ZM332.251 597.601C332.206 597.61 332.16 597.613 332.114 597.609L320.413 597.954C320.127 597.962 319.888 597.737 319.879 597.45C319.871 597.164 320.096 596.925 320.383 596.917L330.833 596.609L318.182 585.405C316.223 583.67 316.041 580.676 317.776 578.717C318.107 578.343 318.495 578.024 318.925 577.771C321.481 576.271 324.769 577.127 326.269 579.683C326.433 579.963 326.571 580.256 326.682 580.561L331.726 594.392L331.888 593.948L340.52 549.138L285.63 549.477L284.955 584.928C295.725 588.129 301.899 599.212 302.233 618.037H382.909C378.824 611.369 374.266 606.497 369.239 603.417C362.515 599.298 350.175 597.347 332.251 597.601ZM332.891 594.226L332.715 595.138L344.582 584.629C346.112 583.273 346.254 580.935 344.899 579.404C344.641 579.113 344.338 578.864 344.002 578.666C341.94 577.456 339.288 578.147 338.078 580.209C337.946 580.434 337.834 580.671 337.745 580.916L332.891 594.226ZM383.532 619.074H277.985L276.766 624.962H386.671C385.659 622.87 384.612 620.908 383.532 619.074ZM278.2 618.037H301.195C300.867 599.726 294.966 589.083 284.824 585.972L282.516 597.194L278.2 618.037ZM325.707 580.916C325.618 580.671 325.506 580.434 325.374 580.209C324.164 578.147 321.512 577.456 319.45 578.666C319.114 578.864 318.811 579.113 318.553 579.404C317.198 580.935 317.34 583.273 318.87 584.629L330.968 595.343L325.707 580.916ZM331.36 506.547H320.152L317.979 520.744H328.73L331.36 506.547ZM319.102 506.547H308.742L306.683 520.744H316.929L319.102 506.547Z" fill="black"/>
<path fill-rule="evenodd" clip-rule="evenodd" d="M279.933 178.832H268.52L280.97 159.097" fill="black"/>
<path d="M439.425 548.166L435.599 521.781H428.997V520.744H435.449L433.39 506.547H426.922V505.509H468.771V506.547H459.833L461.263 520.744H469.117V521.781H461.367L464.038 548.307L488.408 548.446L480.519 594.188L485.489 580.561C485.6 580.257 485.738 579.963 485.902 579.683C487.402 577.127 490.69 576.271 493.246 577.771C493.676 578.024 494.064 578.343 494.395 578.717C496.13 580.676 495.948 583.67 493.989 585.405L482.243 595.807C485.169 595.064 490.087 593.795 496.654 592.086C496.932 592.013 497.215 592.18 497.287 592.457C497.359 592.734 497.193 593.018 496.916 593.09C490.838 594.672 486.453 595.806 483.559 596.542C499.71 596.588 511.002 598.575 517.462 602.533C524.442 606.809 530.498 614.388 535.644 625.258L535.995 625.999H431.941L431.937 625.485L431.596 585.385L426.676 548.093L439.425 548.166ZM440.474 548.172L450.892 548.232L448.549 521.781H436.648L440.474 548.172ZM451.935 548.238L462.995 548.301L460.325 521.781H449.59L451.935 548.238ZM432.562 584.809C447.588 587.837 455.343 598.965 455.791 618.037H530.59C526.505 611.369 521.947 606.497 516.92 603.417C510.22 599.313 497.945 597.361 480.127 597.598C480.057 597.614 479.987 597.614 479.92 597.601C479.797 597.603 479.674 597.605 479.55 597.607C479.517 597.611 479.483 597.612 479.449 597.609L467.748 597.954C467.462 597.962 467.223 597.737 467.215 597.45C467.206 597.164 467.431 596.925 467.718 596.917L478.168 596.609L465.517 585.405C463.558 583.67 463.376 580.676 465.111 578.717C465.442 578.343 465.83 578.024 466.26 577.771C468.816 576.271 472.104 577.127 473.604 579.683C473.768 579.963 473.906 580.257 474.017 580.561L479.312 595.081L487.177 549.477L427.86 549.138L432.562 584.809ZM432.634 585.883L432.91 618.037H454.753C454.313 599.551 446.953 588.884 432.634 585.883ZM531.213 619.074H432.919L432.97 624.962H534.352C533.339 622.87 532.293 620.908 531.213 619.074ZM473.042 580.916C472.953 580.671 472.841 580.434 472.709 580.209C471.499 578.147 468.847 577.456 466.785 578.666C466.449 578.864 466.146 579.113 465.888 579.404C464.533 580.935 464.675 583.273 466.205 584.629L478.303 595.343L473.042 580.916ZM486.463 580.916L481.202 595.343L493.301 584.629C494.831 583.273 494.973 580.935 493.618 579.404C493.359 579.113 493.057 578.864 492.72 578.666C490.659 577.456 488.007 578.147 486.797 580.209C486.664 580.434 486.553 580.671 486.463 580.916ZM458.79 506.547H448.24L449.498 520.744H460.22L458.79 506.547ZM447.199 506.547H434.439L436.497 520.744H448.457L447.199 506.547Z" fill="black"/>
<path d="M85.4143 392.006C83.6236 392.218 82.1415 391.898 80.9678 391.046C79.7926 390.181 79.0966 388.833 78.8799 387.002L78.4755 383.583C78.2588 381.752 78.6217 380.285 79.5643 379.183C80.5052 378.068 81.871 377.404 83.6616 377.192C85.4523 376.98 86.9352 377.307 88.1105 378.172C89.2841 379.024 89.9793 380.365 90.196 382.196L90.6004 385.615C90.8171 387.446 90.455 388.92 89.514 390.035C88.5715 391.137 87.2049 391.794 85.4143 392.006ZM85.1302 389.605C86.134 389.486 86.8795 389.102 87.3667 388.453C87.8539 387.804 88.0397 386.991 87.9241 386.014L87.5004 382.433C87.3848 381.456 87.0144 380.709 86.3893 380.191C85.7641 379.674 84.9495 379.475 83.9457 379.593C82.9554 379.71 82.2099 380.094 81.7092 380.745C81.222 381.394 81.0362 382.207 81.1518 383.184L81.5755 386.765C81.6911 387.742 82.0614 388.489 82.6866 389.006C83.3254 389.522 84.1399 389.722 85.1302 389.605ZM99.1651 390.379C97.3745 390.591 95.8923 390.271 94.7187 389.419C93.5434 388.554 92.8474 387.206 92.6308 385.375L92.2263 381.956C92.0096 380.125 92.3726 378.658 93.3151 377.556C94.2561 376.441 95.6218 375.777 97.4125 375.565C99.2031 375.353 100.686 375.68 101.861 376.545C103.035 377.397 103.73 378.738 103.947 380.569L104.351 383.988C104.568 385.819 104.206 387.293 103.265 388.408C102.322 389.51 100.956 390.167 99.1651 390.379ZM98.881 387.978C99.8849 387.859 100.63 387.475 101.118 386.826C101.605 386.177 101.791 385.364 101.675 384.387L101.251 380.806C101.136 379.829 100.765 379.082 100.14 378.565C99.5149 378.047 98.7004 377.848 97.6966 377.966C96.7063 378.084 95.9608 378.468 95.46 379.118C94.9729 379.767 94.7871 380.58 94.9026 381.557L95.3263 385.138C95.4419 386.115 95.8123 386.862 96.4375 387.38C97.0762 387.895 97.8908 388.095 98.881 387.978ZM112.916 388.752C111.125 388.964 109.643 388.644 108.47 387.792C107.294 386.927 106.598 385.579 106.382 383.748L105.977 380.329C105.76 378.498 106.123 377.031 107.066 375.929C108.007 374.814 109.373 374.15 111.163 373.938C112.954 373.727 114.437 374.053 115.612 374.918C116.786 375.77 117.481 377.111 117.698 378.943L118.102 382.361C118.319 384.192 117.957 385.666 117.016 386.781C116.073 387.883 114.707 388.54 112.916 388.752ZM112.632 386.351C113.636 386.232 114.381 385.848 114.868 385.199C115.356 384.55 115.541 383.737 115.426 382.76L115.002 379.179C114.887 378.202 114.516 377.455 113.891 376.938C113.266 376.42 112.451 376.221 111.447 376.339C110.457 376.457 109.712 376.841 109.211 377.491C108.724 378.14 108.538 378.953 108.653 379.93L109.077 383.511C109.193 384.488 109.563 385.235 110.188 385.753C110.827 386.269 111.642 386.468 112.632 386.351ZM121.661 391.555L119.986 377.393L122.509 377.094L122.653 378.315L123.02 378.272C123.204 377.851 123.522 377.462 123.975 377.106C124.427 376.736 125.107 376.498 126.016 376.39C126.83 376.294 127.607 376.408 128.347 376.733C129.085 377.045 129.71 377.563 130.222 378.286C130.734 379.009 131.055 379.921 131.185 381.019L131.224 381.345C131.354 382.444 131.254 383.405 130.925 384.228C130.596 385.051 130.11 385.707 129.466 386.195C128.821 386.671 128.091 386.956 127.277 387.053C126.667 387.125 126.142 387.111 125.704 387.012C125.281 386.924 124.928 386.787 124.645 386.601C124.373 386.399 124.149 386.192 123.973 385.979L123.606 386.022L124.225 391.251L121.661 391.555ZM126.239 384.906C127.04 384.811 127.668 384.482 128.124 383.919C128.592 383.341 128.768 382.564 128.653 381.587L128.629 381.384C128.513 380.407 128.161 379.699 127.573 379.26C126.983 378.807 126.294 378.627 125.507 378.72C124.721 378.813 124.093 379.149 123.625 379.727C123.155 380.291 122.978 381.062 123.094 382.039L123.118 382.242C123.234 383.219 123.586 383.934 124.176 384.387C124.765 384.826 125.452 384.999 126.239 384.906ZM138.381 385.739C137.065 385.895 135.953 385.737 135.045 385.267C134.136 384.797 133.531 384.043 133.23 383.006L135.518 382.116C135.669 382.58 135.869 382.934 136.118 383.18C136.381 383.424 136.682 383.588 137.022 383.671C137.374 383.74 137.747 383.751 138.14 383.704C138.737 383.633 139.166 383.48 139.427 383.242C139.686 382.992 139.797 382.71 139.76 382.398C139.723 382.086 139.56 381.865 139.269 381.734C138.977 381.59 138.526 381.499 137.916 381.461L137.334 381.427C136.613 381.374 135.947 381.268 135.336 381.106C134.724 380.931 134.217 380.654 133.814 380.275C133.412 379.896 133.171 379.374 133.093 378.71C132.974 377.706 133.25 376.896 133.919 376.28C134.588 375.651 135.519 375.266 136.713 375.125C137.839 374.991 138.804 375.132 139.61 375.545C140.415 375.959 140.981 376.559 141.308 377.346L139.014 378.36C138.845 377.857 138.578 377.518 138.213 377.341C137.862 377.162 137.442 377.102 136.953 377.159C136.465 377.217 136.102 377.35 135.866 377.556C135.627 377.75 135.525 377.996 135.561 378.294C135.599 378.62 135.764 378.848 136.054 378.978C136.343 379.095 136.723 379.167 137.194 379.194L137.776 379.229C138.552 379.274 139.258 379.376 139.896 379.535C140.546 379.678 141.072 379.939 141.474 380.318C141.889 380.682 142.138 381.216 142.221 381.921C142.346 382.98 142.057 383.846 141.353 384.521C140.66 385.18 139.67 385.586 138.381 385.739ZM144.578 379.971L143.447 370.408L146.051 370.1L147.183 379.663L144.578 379.971ZM146.468 384.782C145.925 384.846 145.443 384.725 145.021 384.417C144.612 384.094 144.373 383.648 144.306 383.078C144.239 382.508 144.367 382.025 144.692 381.629C145.028 381.218 145.468 380.98 146.01 380.916C146.566 380.85 147.049 380.979 147.459 381.302C147.867 381.611 148.105 382.051 148.172 382.62C148.239 383.19 148.112 383.68 147.789 384.089C147.464 384.485 147.024 384.716 146.468 384.782ZM47.7481 422.355L49.8071 407.666L54.4877 407.113L59.9175 420.915L57.1499 421.242L56.0058 418.2L50.9182 418.802L50.5157 422.027L47.7481 422.355ZM51.2553 416.244L55.0812 415.792L52.5304 409.057L52.1641 409.1L51.2553 416.244ZM65.5695 420.411C64.7826 420.504 64.0699 420.41 63.4312 420.128C62.8045 419.83 62.2906 419.382 61.8895 418.783C61.4885 418.184 61.239 417.471 61.1411 416.643L60.4284 410.619L62.9926 410.316L63.6812 416.136C63.7711 416.896 64.0216 417.444 64.4329 417.78C64.8577 418.115 65.416 418.242 66.108 418.16C66.8948 418.067 67.4748 417.737 67.848 417.17C68.2195 416.59 68.3499 415.831 68.2392 414.895L67.6324 409.767L70.1966 409.464L71.3908 419.557L68.8674 419.856L68.7108 418.533L68.3445 418.576C68.2219 418.935 67.9559 419.303 67.5468 419.682C67.1376 420.061 66.4785 420.304 65.5695 420.411ZM79.0194 418.944C78.0426 419.059 77.1299 418.961 76.2813 418.649C75.4463 418.335 74.7524 417.818 74.1996 417.1C73.6469 416.381 73.3055 415.472 73.1754 414.373L73.1417 414.088C73.0117 412.989 73.1316 412.026 73.5014 411.198C73.8712 410.37 74.4254 409.706 75.1641 409.206C75.9164 408.704 76.781 408.396 77.7578 408.28C78.721 408.166 79.5687 408.238 80.3007 408.495C81.0328 408.752 81.6444 409.155 82.1356 409.702C82.6387 410.234 83.0023 410.865 83.2262 411.595L80.8061 412.418C80.7037 412.017 80.5382 411.665 80.3098 411.362C80.0813 411.059 79.7795 410.834 79.4043 410.685C79.0426 410.535 78.604 410.491 78.0885 410.552C77.573 410.613 77.1186 410.784 76.7253 411.064C76.3439 411.329 76.0577 411.7 75.8664 412.177C75.6872 412.638 75.6352 413.188 75.7107 413.826L75.7348 414.029C75.8102 414.667 75.9897 415.196 76.2733 415.616C76.5689 416.021 76.9338 416.315 77.3681 416.498C77.8144 416.665 78.2953 416.718 78.8108 416.657C79.5841 416.566 80.1442 416.3 80.4911 415.86C80.85 415.405 81.0451 414.845 81.0766 414.181L83.6292 414.478C83.5379 415.217 83.3105 415.912 82.947 416.56C82.5954 417.193 82.0938 417.72 81.442 418.141C80.7902 418.562 79.9827 418.83 79.0194 418.944ZM90.0336 417.517C89.2467 417.61 88.5339 417.515 87.8952 417.233C87.2685 416.936 86.7547 416.488 86.3536 415.889C85.9526 415.289 85.7031 414.576 85.6052 413.749L84.8925 407.725L87.4566 407.421L88.1452 413.242C88.2351 414.001 88.4857 414.55 88.8969 414.886C89.3217 415.221 89.8801 415.348 90.572 415.266C91.3589 415.173 91.9389 414.843 92.312 414.276C92.6836 413.695 92.814 412.937 92.7032 412.001L92.0965 406.872L94.6606 406.569L95.8548 416.663L93.3314 416.961L93.1749 415.639L92.8086 415.682C92.6859 416.04 92.42 416.409 92.0108 416.788C91.6016 417.166 90.9426 417.409 90.0336 417.517ZM98.7082 416.325L97.5139 406.232L100.037 405.933L100.194 407.256L100.56 407.212C100.681 406.84 100.947 406.472 101.358 406.107C101.767 405.728 102.426 405.485 103.335 405.378C104.122 405.285 104.829 405.387 105.456 405.684C106.094 405.966 106.614 406.407 107.015 407.006C107.415 407.591 107.664 408.305 107.764 409.146L108.476 415.17L105.912 415.473L105.224 409.653C105.134 408.893 104.876 408.346 104.452 408.011C104.04 407.674 103.489 407.547 102.797 407.629C102.01 407.722 101.431 408.059 101.059 408.639C100.686 409.206 100.555 409.958 100.666 410.894L101.272 416.022L98.7082 416.325ZM116.415 414.23L115.221 404.137L117.745 403.838L117.875 404.937L118.241 404.894C118.377 404.534 118.634 404.207 119.012 403.915C119.389 403.609 119.91 403.417 120.574 403.338C121.293 403.253 121.887 403.327 122.355 403.561C122.821 403.781 123.196 404.101 123.479 404.521L123.846 404.478C124.025 404.017 124.308 403.619 124.695 403.284C125.082 402.949 125.662 402.736 126.435 402.645C127.059 402.571 127.638 402.64 128.172 402.852C128.718 403.049 129.173 403.401 129.535 403.908C129.91 404.4 130.146 405.053 130.242 405.867L131.027 412.502L128.463 412.805L127.699 406.354C127.634 405.798 127.442 405.401 127.125 405.163C126.807 404.912 126.39 404.817 125.874 404.878C125.291 404.947 124.859 405.19 124.578 405.609C124.309 406.012 124.216 406.56 124.298 407.252L125.003 413.214L122.439 413.518L121.676 407.067C121.61 406.51 121.419 406.113 121.102 405.876C120.783 405.625 120.366 405.529 119.85 405.59C119.267 405.659 118.835 405.903 118.554 406.322C118.286 406.725 118.192 407.272 118.274 407.964L118.979 413.927L116.415 414.23ZM138.621 411.892C137.617 412.011 136.691 411.914 135.842 411.602C134.994 411.289 134.293 410.774 133.74 410.055C133.187 409.336 132.847 408.434 132.718 407.349L132.68 407.023C132.551 405.938 132.672 404.981 133.042 404.153C133.412 403.326 133.973 402.661 134.725 402.159C135.477 401.657 136.355 401.347 137.359 401.228C138.363 401.11 139.29 401.206 140.138 401.519C140.987 401.831 141.687 402.346 142.24 403.065C142.793 403.784 143.134 404.686 143.262 405.771L143.3 406.097C143.429 407.182 143.308 408.139 142.938 408.967C142.569 409.795 142.008 410.459 141.255 410.961C140.503 411.463 139.625 411.773 138.621 411.892ZM138.351 409.613C139.138 409.52 139.76 409.192 140.216 408.629C140.67 408.052 140.841 407.289 140.729 406.339L140.705 406.136C140.593 405.186 140.249 404.491 139.674 404.05C139.111 403.594 138.429 403.413 137.629 403.508C136.842 403.601 136.221 403.936 135.767 404.512C135.311 405.075 135.139 405.831 135.251 406.781L135.275 406.985C135.388 407.934 135.732 408.636 136.309 409.091C136.884 409.532 137.564 409.706 138.351 409.613ZM150.349 410.504C149.548 410.599 148.772 410.491 148.02 410.181C147.28 409.856 146.654 409.332 146.142 408.608C145.63 407.885 145.309 406.974 145.179 405.875L145.14 405.549C145.01 404.45 145.11 403.489 145.439 402.666C145.768 401.843 146.255 401.194 146.901 400.719C147.544 400.23 148.273 399.937 149.087 399.841C149.698 399.769 150.215 399.783 150.64 399.884C151.077 399.97 151.437 400.106 151.72 400.293C152.004 400.479 152.228 400.687 152.392 400.915L152.758 400.872L152.13 395.56L154.694 395.257L156.38 409.502L153.856 409.8L153.712 408.579L153.345 408.623C153.16 409.03 152.841 409.418 152.39 409.788C151.952 410.156 151.271 410.395 150.349 410.504ZM150.857 408.174C151.644 408.081 152.273 407.752 152.742 407.188C153.21 406.61 153.387 405.832 153.271 404.855L153.247 404.652C153.131 403.675 152.779 402.967 152.191 402.528C151.614 402.073 150.926 401.893 150.125 401.988C149.339 402.081 148.711 402.417 148.243 402.995C147.773 403.559 147.596 404.33 147.712 405.307L147.736 405.51C147.851 406.487 148.204 407.202 148.794 407.655C149.383 408.094 150.071 408.267 150.857 408.174ZM163.855 408.906C162.851 409.025 161.938 408.92 161.115 408.591C160.304 408.247 159.635 407.714 159.11 406.992C158.596 406.254 158.277 405.357 158.151 404.299L158.122 404.054C157.997 402.996 158.099 402.056 158.428 401.232C158.756 400.396 159.274 399.722 159.984 399.212C160.693 398.688 161.549 398.366 162.553 398.248C163.543 398.13 164.431 398.252 165.217 398.613C166.001 398.961 166.643 399.504 167.143 400.243C167.642 400.968 167.952 401.846 168.074 402.877L168.177 403.752L160.831 404.621C160.94 405.31 161.264 405.842 161.804 406.219C162.344 406.595 162.966 406.742 163.672 406.658C164.391 406.573 164.902 406.354 165.204 406.002C165.506 405.65 165.723 405.274 165.854 404.873L168.08 405.724C167.932 406.099 167.7 406.519 167.383 406.983C167.079 407.431 166.646 407.84 166.084 408.209C165.521 408.565 164.778 408.797 163.855 408.906ZM160.625 402.706L165.346 402.147C165.223 401.57 164.93 401.13 164.468 400.827C164.019 400.523 163.462 400.41 162.797 400.489C162.106 400.57 161.577 400.812 161.212 401.213C160.846 401.614 160.651 402.111 160.625 402.706ZM161.76 397.475L159.246 394.718L162.136 394.376L163.998 397.21L161.76 397.475ZM170.968 407.776L169.282 393.531L171.846 393.227L173.532 407.473L170.968 407.776ZM181.006 406.877C180.002 406.996 179.089 406.891 178.265 406.562C177.454 406.217 176.786 405.684 176.26 404.962C175.747 404.225 175.427 403.328 175.302 402.269L175.273 402.025C175.148 400.967 175.25 400.026 175.579 399.203C175.906 398.367 176.425 397.693 177.135 397.183C177.844 396.659 178.7 396.337 179.704 396.218C180.694 396.101 181.582 396.223 182.368 396.584C183.152 396.932 183.794 397.475 184.294 398.213C184.792 398.939 185.102 399.817 185.224 400.848L185.328 401.723L177.982 402.592C178.091 403.281 178.415 403.813 178.955 404.19C179.494 404.566 180.117 404.712 180.823 404.629C181.542 404.544 182.052 404.325 182.354 403.973C182.657 403.621 182.874 403.245 183.005 402.844L185.231 403.695C185.083 404.07 184.851 404.489 184.534 404.953C184.229 405.402 183.796 405.811 183.235 406.18C182.671 406.536 181.929 406.768 181.006 406.877ZM177.776 400.677L182.497 400.118C182.374 399.541 182.081 399.101 181.618 398.798C181.17 398.494 180.613 398.381 179.948 398.459C179.256 398.541 178.728 398.783 178.362 399.184C177.997 399.584 177.801 400.082 177.776 400.677ZM93.0895 443.171C92.4247 443.25 91.858 443.111 91.3893 442.753C90.9325 442.381 90.6632 441.849 90.5813 441.157L89.9072 435.459L87.3837 435.757L87.1333 433.641L89.6568 433.342L89.286 430.209L91.8501 429.905L92.2209 433.039L94.9885 432.712L95.2389 434.828L92.4713 435.156L93.0925 440.406C93.1406 440.813 93.3547 440.994 93.7345 440.949L95.6882 440.718L95.9386 442.834L93.0895 443.171ZM98.5038 442.531L97.3096 432.437L99.833 432.138L99.9678 433.278L100.334 433.235C100.435 432.81 100.644 432.483 100.961 432.253C101.291 432.021 101.687 431.878 102.148 431.823L103.369 431.679L103.639 433.958L102.377 434.107C101.726 434.184 101.211 434.424 100.832 434.827C100.452 435.216 100.304 435.77 100.389 436.489L101.068 442.227L98.5038 442.531ZM111.051 441.335C110.047 441.454 109.121 441.357 108.272 441.045C107.424 440.733 106.723 440.217 106.17 439.498C105.617 438.78 105.277 437.878 105.148 436.792L105.11 436.467C104.981 435.381 105.102 434.425 105.472 433.597C105.842 432.769 106.403 432.104 107.155 431.602C107.907 431.101 108.785 430.79 109.789 430.672C110.793 430.553 111.72 430.65 112.568 430.962C113.417 431.274 114.117 431.79 114.67 432.508C115.223 433.227 115.564 434.129 115.692 435.215L115.731 435.54C115.859 436.626 115.738 437.582 115.368 438.41C114.999 439.238 114.438 439.903 113.685 440.404C112.933 440.906 112.055 441.216 111.051 441.335ZM110.781 439.056C111.568 438.963 112.19 438.635 112.646 438.072C113.1 437.495 113.272 436.732 113.159 435.783L113.135 435.579C113.023 434.629 112.679 433.934 112.104 433.493C111.541 433.037 110.859 432.856 110.059 432.951C109.272 433.044 108.651 433.379 108.197 433.955C107.741 434.518 107.569 435.275 107.681 436.224L107.705 436.428C107.818 437.377 108.162 438.08 108.739 438.534C109.314 438.975 109.994 439.149 110.781 439.056ZM122.541 439.852C121.754 439.945 121.041 439.851 120.402 439.568C119.776 439.271 119.262 438.823 118.861 438.224C118.46 437.625 118.21 436.911 118.112 436.084L117.4 430.06L119.964 429.757L120.652 435.577C120.742 436.337 120.993 436.885 121.404 437.221C121.829 437.556 122.387 437.683 123.079 437.601C123.866 437.508 124.446 437.178 124.819 436.611C125.191 436.03 125.321 435.272 125.21 434.336L124.604 429.208L127.168 428.904L128.362 438.998L125.839 439.297L125.682 437.974L125.316 438.017C125.193 438.376 124.927 438.744 124.518 439.123C124.109 439.501 123.45 439.744 122.541 439.852ZM133.332 438.41L128.922 428.697L131.649 428.374L134.962 436.319L135.328 436.275L136.696 427.777L139.423 427.454L137.402 437.929L133.332 438.41ZM146.699 437.118C145.695 437.236 144.782 437.131 143.958 436.802C143.147 436.458 142.479 435.925 141.953 435.203C141.44 434.466 141.12 433.568 140.995 432.51L140.966 432.266C140.841 431.207 140.943 430.267 141.272 429.444C141.599 428.607 142.118 427.933 142.828 427.423C143.537 426.899 144.393 426.578 145.397 426.459C146.387 426.342 147.275 426.464 148.061 426.825C148.845 427.172 149.487 427.715 149.987 428.454C150.485 429.179 150.795 430.057 150.917 431.088L151.021 431.963L143.675 432.832C143.784 433.521 144.108 434.054 144.648 434.43C145.187 434.806 145.81 434.953 146.516 434.869C147.235 434.784 147.745 434.566 148.047 434.213C148.35 433.861 148.567 433.485 148.698 433.084L150.924 433.935C150.776 434.31 150.544 434.73 150.227 435.194C149.922 435.642 149.489 436.051 148.928 436.42C148.364 436.776 147.622 437.008 146.699 437.118ZM143.469 430.917L148.19 430.359C148.067 429.782 147.774 429.342 147.311 429.039C146.863 428.734 146.306 428.621 145.641 428.7C144.949 428.782 144.421 429.023 144.055 429.424C143.69 429.825 143.494 430.322 143.469 430.917ZM143.749 425.787L144.898 422.597L147.788 422.255L145.987 425.522L143.749 425.787Z" fill="white"/>
<path d="M280.836 158.54C280.899 158.304 280.952 158.084 280.996 157.882L281.564 145.908C282.504 126.059 298.852 110.45 318.701 110.45H357.751V111.489H318.701C299.406 111.489 283.514 126.662 282.6 145.957L282.435 149.439C284.269 142.398 287.805 136.099 293.049 130.69C300.954 122.536 310.744 126.6 322.203 142.52C322.37 142.753 322.318 143.077 322.085 143.245C321.853 143.413 321.528 143.36 321.361 143.127C310.224 127.655 301.107 123.87 293.794 131.413C286.911 138.512 283.048 147.169 282.179 157.065C282.155 157.34 282.105 157.657 282.029 158.017L280.451 191.322L279.415 191.272L279.996 179.005H268.866C268.457 179.005 268.209 178.555 268.427 178.209L280.836 158.54ZM280.045 177.967L280.876 160.421L269.807 177.967H280.045Z" fill="black"/>
<path d="M433.95 205.026C433.663 205.015 433.44 204.774 433.451 204.487C433.462 204.201 433.703 203.977 433.989 203.988C437.811 204.134 439.626 201.939 439.548 197.137C439.471 192.314 437.883 190.068 434.756 190.122C434.47 190.127 434.233 189.899 434.228 189.612C434.223 189.325 434.451 189.089 434.738 189.084C438.541 189.018 440.5 191.789 440.586 197.12C440.672 202.474 438.421 205.197 433.95 205.026ZM432.843 241.56C432.558 241.534 432.347 241.281 432.373 240.995C432.399 240.71 432.651 240.499 432.937 240.525C436.746 240.871 438.673 238.773 438.847 233.974C439.022 229.153 437.554 226.827 434.428 226.718C434.142 226.708 433.918 226.468 433.928 226.181C433.938 225.895 434.178 225.67 434.464 225.68C438.266 225.813 440.077 228.683 439.884 234.012C439.689 239.362 437.299 241.964 432.843 241.56ZM410.165 281.985C409.903 281.87 409.784 281.564 409.899 281.301C410.014 281.038 410.32 280.919 410.582 281.034C414.108 282.579 416.458 281.565 417.881 277.876C419.314 274.162 418.562 271.871 415.619 270.741C415.351 270.638 415.218 270.338 415.321 270.07C415.423 269.802 415.724 269.669 415.991 269.771C419.518 271.125 420.474 274.038 418.849 278.25C417.215 282.486 414.238 283.77 410.165 281.985ZM372.813 143.729L373.816 143.996C371.923 151.101 367.974 155.294 362.003 156.49L361.799 155.471C367.357 154.359 371.017 150.473 372.813 143.729Z" fill="black"/>
<path d="M314.709 157.499L316.092 162.693C316.166 162.97 316.451 163.135 316.727 163.061C317.004 162.987 317.169 162.702 317.095 162.425L315.712 157.232C315.638 156.954 315.353 156.79 315.077 156.864C314.8 156.938 314.635 157.222 314.709 157.499Z" fill="black"/>
<path d="M315.094 157.871L319.59 158.91C319.869 158.975 320.148 158.8 320.212 158.521C320.276 158.241 320.102 157.963 319.823 157.898L315.327 156.859C315.048 156.795 314.769 156.969 314.705 157.249C314.64 157.528 314.814 157.807 315.094 157.871Z" fill="black"/>
<path d="M510.324 161.159C506.826 156.936 500.745 156.49 495.732 159.792C493.779 161.078 492.355 162.91 491.686 165.003C489.999 170.279 496.625 183.759 511.573 205.784C511.734 206.022 512.057 206.083 512.294 205.922C512.531 205.761 512.593 205.438 512.432 205.201C497.727 183.534 491.137 170.127 492.674 165.32C493.27 163.457 494.544 161.817 496.303 160.659C500.899 157.632 506.388 158.035 509.525 161.822C509.708 162.043 510.035 162.074 510.256 161.891C510.476 161.708 510.507 161.38 510.324 161.159Z" fill="black"/>
</svg>
