<svg xmlns="http://www.w3.org/2000/svg" viewBox="0 0 480 360" fill="none" role="img" aria-labelledby="title">
  <title id="title">Composer une newsletter</title>
  <rect width="480" height="360" rx="24" fill="#1D141F"/>
  <circle cx="400" cy="40" r="90" fill="#E2F343" fill-opacity="0.18"/>
  <circle cx="60" cy="320" r="70" fill="#E2F343" fill-opacity="0.12"/>
  <rect x="48" y="56" width="280" height="200" rx="16" fill="#FAFBFC"/>
  <rect x="72" y="84" width="120" height="10" rx="5" fill="#E2F343"/>
  <rect x="72" y="110" width="200" height="8" rx="4" fill="#E8ECEF"/>
  <rect x="72" y="128" width="168" height="8" rx="4" fill="#E8ECEF"/>
  <rect x="72" y="146" width="188" height="8" rx="4" fill="#E8ECEF"/>
  <rect x="72" y="176" width="100" height="36" rx="18" fill="#1D141F"/>
  <rect x="92" y="188" width="60" height="8" rx="4" fill="#E2F343"/>
  <rect x="200" y="176" width="72" height="36" rx="12" fill="#E8ECEF"/>
  <path d="M300 120h112c10 0 18 8 18 18v120c0 10-8 18-18 18H300c-10 0-18-8-18-18V138c0-10 8-18 18-18Z" fill="#E2F343"/>
  <path d="M282 148l74 38c4 2 8 2 12 0l74-38" stroke="#1D141F" stroke-width="3" stroke-linecap="round"/>
  <circle cx="388" cy="96" r="18" fill="#1D141F"/>
  <path d="M382 96h12M388 90v12" stroke="#E2F343" stroke-width="2" stroke-linecap="round"/>
  <text x="56" y="300" fill="#E2F343" font-family="system-ui,sans-serif" font-size="14" font-weight="700" letter-spacing="0.12em">ITM NEWSLETTER</text>
  <text x="56" y="324" fill="#FAFBFC" font-family="system-ui,sans-serif" font-size="18" font-weight="600">Composez. Envoyez. Engagez.</text>
</svg>
